<svg width="40" height="40" viewBox="0 0 40 40" fill="none" xmlns="http://www.w3.org/2000/svg">
<g clip-path="url(#clip0_35_8419)">
<path d="M20 0C31.0453 0 40 8.95469 40 20C40 29.9828 32.6859 38.2568 23.125 39.7568V25.7812H27.7852L28.6719 20H23.125V16.248C23.125 16.0505 23.1371 15.8535 23.1631 15.6602C23.1891 15.4665 23.2294 15.2764 23.2852 15.0928C23.3687 14.8177 23.4878 14.5573 23.6484 14.3213C23.702 14.2426 23.7602 14.1666 23.8232 14.0938C24.3275 13.5106 25.1425 13.125 26.3848 13.125H28.9062V8.20312C28.906 8.20308 28.5841 8.14775 28.0664 8.0791C27.2036 7.96468 25.797 7.81253 24.4297 7.8125H24.4287C19.8609 7.81258 16.875 10.5813 16.875 15.5938V20H11.7969V25.7812H16.875V39.7568C7.31408 38.2568 0 29.9828 0 20C1.03089e-06 8.95469 8.95469 0 20 0Z" fill="#1877F2"/>
</g>
<defs>
<clipPath id="clip0_35_8419">
<rect width="40" height="40" fill="white"/>
</clipPath>
</defs>
</svg>
