<svg width="40" height="40" viewBox="0 0 40 40" fill="none" xmlns="http://www.w3.org/2000/svg">
<path fill-rule="evenodd" clip-rule="evenodd" d="M20 20C20 17.2386 22.2386 15 25 15C27.7614 15 30 17.2386 30 20C30 22.7614 27.7614 25 25 25C22.2386 25 20 22.7614 20 20Z" fill="#1ABCFE"/>
<path fill-rule="evenodd" clip-rule="evenodd" d="M10 30C10 27.2386 12.2386 25 15 25H20V30C20 32.7614 17.7614 35 15 35C12.2386 35 10 32.7614 10 30Z" fill="#0ACF83"/>
<path fill-rule="evenodd" clip-rule="evenodd" d="M20 5V15H25C27.7614 15 30 12.7614 30 10C30 7.23858 27.7614 5 25 5H20Z" fill="#FF7262"/>
<path fill-rule="evenodd" clip-rule="evenodd" d="M10 10C10 12.7614 12.2386 15 15 15H20V5H15C12.2386 5 10 7.23858 10 10Z" fill="#F24E1E"/>
<path fill-rule="evenodd" clip-rule="evenodd" d="M10 20C10 22.7614 12.2386 25 15 25H20V15H15C12.2386 15 10 17.2386 10 20Z" fill="#A259FF"/>
</svg>
