<svg width="40" height="40" viewBox="0 0 40 40" fill="none" xmlns="http://www.w3.org/2000/svg">
<path d="M20 2.5C10.3312 2.5 2.5 10.3313 2.5 20C2.5 27.7438 7.50937 34.2844 14.4656 36.6031C15.3406 36.7563 15.6687 36.2313 15.6687 35.7719C15.6687 35.3563 15.6469 33.9781 15.6469 32.5125C11.25 33.3219 10.1125 31.4406 9.7625 30.4563C9.56562 29.9531 8.7125 28.4 7.96875 27.9844C7.35625 27.6563 6.48125 26.8469 7.94688 26.825C9.325 26.8031 10.3094 28.0938 10.6375 28.6188C12.2125 31.2656 14.7281 30.5219 15.7344 30.0625C15.8875 28.925 16.3469 28.1594 16.85 27.7219C12.9563 27.2844 8.8875 25.775 8.8875 19.0813C8.8875 17.1781 9.56563 15.6031 10.6812 14.3781C10.5063 13.9406 9.89375 12.1469 10.8562 9.74063C10.8562 9.74063 12.3219 9.28125 15.6687 11.5344C17.0688 11.1406 18.5563 10.9438 20.0438 10.9438C21.5313 10.9438 23.0188 11.1406 24.4188 11.5344C27.7656 9.25938 29.2313 9.74063 29.2313 9.74063C30.1938 12.1469 29.5813 13.9406 29.4062 14.3781C30.5219 15.6031 31.2 17.1563 31.2 19.0813C31.2 25.7969 27.1094 27.2844 23.2156 27.7219C23.85 28.2688 24.3969 29.3188 24.3969 30.9594C24.3969 33.3 24.375 35.1813 24.375 35.7719C24.375 36.2313 24.7031 36.7781 25.5781 36.6031C29.0522 35.4303 32.071 33.1976 34.2096 30.2192C36.3483 27.2408 37.4991 23.6667 37.5 20C37.5 10.3313 29.6688 2.5 20 2.5Z" fill="white"/>
</svg>
