<svg width="40" height="40" viewBox="0 0 40 40" fill="none" xmlns="http://www.w3.org/2000/svg">
<rect x="2.5" y="2.5" width="35" height="35" fill="#FFCA28"/>
<path d="M23.75 31.6096L26.3269 29.9044C26.5288 30.5389 27.8077 32.0458 29.4231 32.0458C31.0385 32.0458 31.7885 31.1635 31.7885 30.5786C31.7885 28.9846 30.139 28.4226 29.3467 28.1526C29.2176 28.1086 29.1112 28.0724 29.0385 28.0407C29.0012 28.0245 28.9448 28.0029 28.8724 27.9752C27.9912 27.6386 24.7404 26.3966 24.7404 22.7964C24.7404 18.831 28.5673 18.375 29.4327 18.375C29.9989 18.375 32.7212 18.4444 34.0769 20.9922L31.5769 22.737C31.0288 21.6266 30.1182 21.2598 29.5577 21.2598C28.1731 21.2598 27.8846 22.2749 27.8846 22.737C27.8846 24.0335 29.389 24.6146 30.6592 25.1053C30.9915 25.2336 31.3078 25.3558 31.5769 25.483C32.9615 26.1373 35 27.2079 35 30.5786C35 32.2668 33.584 35 30.0192 35C25.2308 35 23.9615 32.1251 23.75 31.6096Z" fill="#3E3E3E"/>
<path d="M11.25 31.9482L13.9358 30.2439C14.1463 30.8781 14.9641 32.0473 16.1507 32.0473C17.3372 32.0473 17.9446 30.8285 17.9446 30.2439V18.75H21.2477V30.2439C21.3012 31.8293 20.422 35 16.5415 35C12.9737 35 11.4905 32.8796 11.25 31.9482Z" fill="#3E3E3E"/>
</svg>
