<svg width="40" height="40" viewBox="0 0 40 40" fill="none" xmlns="http://www.w3.org/2000/svg">
<path d="M20 2.5C10.3477 2.5 2.5 10.3477 2.5 20C2.5 29.6523 10.3477 37.5 20 37.5C29.6523 37.5 37.5 29.6523 37.5 20C37.5 10.3477 29.6523 2.5 20 2.5Z" fill="#FDDD4C"/>
<path d="M12.336 24.5627C11.9534 23.9834 12.9158 23.1066 12.5244 22.3704C12.2987 21.9458 11.9299 21.6813 11.4869 21.6257C11.0618 21.5724 10.6238 21.728 10.3447 22.0322C9.90393 22.5118 9.8354 23.1646 9.92065 23.3956C9.95185 23.4803 10.0009 23.5034 10.036 23.5084C10.276 23.5399 10.4111 22.9239 10.494 22.7956C10.7231 22.4419 11.2435 22.3348 11.6028 22.5673C12.2841 23.008 11.6933 23.7202 11.7443 24.3218C11.7939 24.9076 12.1589 25.143 12.4865 25.1677C12.8052 25.1798 13.0281 25.0027 13.0843 24.8735C13.2193 24.5649 12.6509 25.0394 12.336 24.5627Z" fill="black"/>
<path d="M26.5721 19.2448C26.3934 19.2201 26.1981 19.2207 25.9949 19.2448C25.8406 19.0501 25.7024 18.7349 25.6244 18.367C25.4856 17.7125 25.5001 17.2384 25.8873 17.1768C26.2746 17.1152 26.4618 17.5112 26.6005 18.1657C26.6936 18.6057 26.6758 19.0099 26.5721 19.2448Z" fill="black"/>
<path d="M22.3308 19.6342C22.3461 19.7824 22.3515 19.9324 22.3472 20.0705C22.7218 20.0924 22.9872 20.2704 23.0579 20.3833C23.0941 20.4416 23.0796 20.4796 23.0679 20.4972C23.0292 20.5575 22.946 20.5482 22.7719 20.5287C22.6198 20.5116 22.456 20.4966 22.2858 20.5044C22.1932 20.7885 21.9185 20.8151 21.7255 20.605C21.5907 20.6461 21.3259 20.8151 21.2471 20.6314C21.2464 20.5402 21.3417 20.4077 21.5144 20.2906C21.3965 20.0658 21.3175 19.8251 21.2709 19.5759C21.0261 19.62 20.8059 19.6885 20.6333 19.7423C20.5522 19.7675 20.2316 19.9123 20.194 19.7491C20.1689 19.6364 20.3444 19.4505 20.53 19.3163C20.7373 19.1691 20.9673 19.0644 21.2057 19.0041C21.2006 18.6491 21.2912 18.4014 21.5491 18.3604C21.8689 18.3095 22.0671 18.5557 22.2042 19.0117C22.5907 19.119 22.9767 19.3853 23.1471 19.6606C23.2134 19.7673 23.2262 19.8498 23.1833 19.8932C23.0762 20.0042 22.4828 19.6824 22.3308 19.6342Z" fill="black"/>
<path d="M24.8721 21.2297C25.1173 21.3485 25.387 21.3018 25.475 21.1252C25.563 20.9487 25.4354 20.7094 25.1903 20.5906C24.9451 20.4718 24.6754 20.5186 24.5874 20.6951C24.4994 20.8717 24.627 21.1109 24.8721 21.2297Z" fill="black"/>
<path d="M26.079 20.353C26.0834 20.083 26.2489 19.8674 26.4478 19.8707C26.6467 19.8745 26.8044 20.0956 26.8 20.3651C26.7955 20.6346 26.63 20.8502 26.4311 20.8469C26.2322 20.8436 26.0745 20.6225 26.079 20.353Z" fill="black"/>
<path fill-rule="evenodd" clip-rule="evenodd" d="M31.4731 23.6602C31.4715 23.6546 31.477 23.674 31.4731 23.6602C31.8726 23.6602 32.5 24.1134 32.5 25.2084C32.5 26.298 32.042 27.5322 31.9339 27.8061C30.2841 31.7089 26.3464 33.8813 21.6561 33.7438C17.2833 33.6157 13.554 31.3382 11.922 27.6251C10.9352 27.6262 9.91783 27.1978 9.14445 26.5213C8.32929 25.8085 7.82671 24.8861 7.72865 23.9242C7.65231 23.1751 7.74536 22.4782 7.98328 21.8705L7.06671 21.1038C2.87222 17.608 15.9912 3.21456 20.1868 6.82695C20.2079 6.8451 21.6143 8.20689 21.6176 8.21019C23.6406 7.36232 29.0611 5.748 29.0672 9.50599C29.0694 10.7539 28.2637 12.2092 26.9727 13.5298C28.4647 14.8955 28.0713 16.8356 28.3089 18.6156L28.827 18.7575C29.8149 19.0309 30.5175 19.3955 30.8613 19.7519C31.2051 20.1077 31.3756 20.4526 31.4375 20.8568C31.4954 21.183 31.4876 21.7588 31.0519 22.4029C31.2088 22.8184 31.352 23.2326 31.4731 23.6602ZM11.8479 26.6126C11.9945 26.6159 12.1399 26.6065 12.2825 26.5823C13.8153 26.3244 14.2165 24.681 13.9641 23.0673C13.6788 21.2451 12.4302 20.6027 11.5827 20.5571C11.347 20.545 11.128 20.5659 10.9475 20.6016C9.43475 20.9025 8.58058 22.173 8.74885 23.823C8.90097 25.3162 10.431 26.5752 11.8479 26.6126ZM8.42179 21.0493C8.92938 20.3217 9.75903 19.7953 10.7007 19.6144C11.8992 16.4387 13.9006 13.5127 16.5495 11.4992C18.5152 9.88054 20.6353 8.71949 20.6353 8.71949C20.6353 8.71949 19.4936 7.41269 19.1487 7.31644C17.0275 6.75105 12.4463 9.86953 9.52111 13.9901C8.33765 15.6572 6.64325 18.6096 7.4534 20.1281C7.55313 20.3162 8.11868 20.7996 8.42179 21.0493ZM25.6193 25.8833C25.6227 25.9174 25.6015 25.9526 25.5708 25.9652C25.5708 25.9652 23.8664 26.7479 21.159 25.9212C21.2564 26.7328 22.2405 27.0403 22.9281 27.1516C26.2829 27.7214 29.4193 25.8277 30.1253 25.3509C30.2465 25.269 30.1238 25.4795 30.1019 25.5104C29.2377 26.6109 26.9142 27.8853 23.8915 27.8847C22.5732 27.8842 21.2554 27.426 20.7718 26.7215C20.0213 25.6286 20.7345 24.0331 21.9854 24.1992C24.0997 24.4349 26.2674 24.2578 28.2247 23.361C29.9314 22.5789 30.576 21.7187 30.4791 21.0218C30.3287 19.9419 28.7276 19.773 27.9183 19.5105C27.5661 19.3955 27.3923 19.3037 27.3527 18.6497C27.3354 18.3643 27.2853 17.3682 27.2669 16.9563C27.2346 16.2352 27.1466 15.2491 26.527 14.8421C26.3654 14.7359 26.186 14.6848 25.9971 14.6749C25.8465 14.6677 25.7572 14.6884 25.7092 14.6995C25.6984 14.702 25.6897 14.704 25.6828 14.7051C25.3483 14.7613 25.1433 14.9305 24.9015 15.1301C24.8876 15.1416 24.8735 15.1532 24.8593 15.1649C24.0865 15.8007 23.434 15.9047 22.708 15.8739C22.4819 15.8644 22.2489 15.8418 22.003 15.818C21.7769 15.7961 21.54 15.7731 21.2878 15.7584L20.9796 15.7408C19.7639 15.6792 18.46 16.7154 18.2433 18.1872C18.0011 19.83 18.9194 20.8362 19.5166 21.4906C19.6641 21.6523 19.7921 21.7926 19.8781 21.9156C19.9332 21.9898 19.9973 22.0943 19.9973 22.1939C19.9973 22.3127 19.9193 22.4067 19.843 22.487C18.6027 23.746 18.206 25.7463 18.6734 27.4134C18.7319 27.6213 18.8061 27.8204 18.8935 28.0107C19.9901 30.5401 23.3922 31.7182 26.7153 30.6468C29.0443 29.8958 31.102 28.0813 31.521 25.578C31.6208 24.9257 31.4742 24.6738 31.2747 24.5523C31.0636 24.4241 30.8106 24.4687 30.8106 24.4687C30.8106 24.4687 30.6953 23.6893 30.3688 22.9809C29.3998 23.7355 28.1528 24.2657 27.2034 24.5347C25.6822 24.9654 24.039 25.1332 22.4671 24.93C21.8296 24.8477 21.4012 24.7923 21.2176 25.3811C23.3142 26.139 25.5335 25.8145 25.5335 25.8145C25.5764 25.8101 25.6149 25.8409 25.6193 25.8833ZM19.57 11.1758C18.4233 11.7549 17.1429 12.7862 16.1031 13.9725C16.0664 14.0149 16.121 14.0732 16.1661 14.0407C17.0643 13.3956 18.2957 12.7961 19.9087 12.4078C21.7157 11.9727 23.4552 12.1553 24.5178 12.3957C24.5713 12.4078 24.6047 12.317 24.5573 12.2906C23.8553 11.9018 22.7777 11.6378 22.0132 11.6323C21.9759 11.6317 21.9547 11.5888 21.977 11.5591C22.109 11.3837 22.2901 11.2104 22.4556 11.085C22.4924 11.0564 22.4701 10.9976 22.4233 11.0003C21.4723 11.058 19.3003 12.0484 19.3081 12.0123C19.3638 11.7483 19.5393 11.3996 19.6301 11.2368C19.6519 11.1983 19.6095 11.156 19.57 11.1758Z" fill="black"/>
</svg>
