<svg width="40" height="40" viewBox="0 0 40 40" fill="none" xmlns="http://www.w3.org/2000/svg">
<path d="M14.0601 16.9734V16.7195C14.0601 16.0759 14.5756 15.5421 15.2399 15.4977L20.0791 15.1746L26.7713 25.0294V16.3802L25.0488 16.1506V16.03C25.0488 15.3788 25.576 14.8415 26.2488 14.807L30.652 14.5815V15.2151C30.652 15.5126 30.4308 15.767 30.1276 15.8183L29.068 15.9975V30.0046L27.7382 30.4619C26.6273 30.844 25.3905 30.435 24.7545 29.4753L18.2576 19.6715V29.0287L20.2573 29.4114L20.2295 29.5969C20.1422 30.1779 19.6406 30.6173 19.0337 30.6443L14.0601 30.8657C13.9944 30.2409 14.4626 29.682 15.1086 29.6141L15.7629 29.5454V17.0691L14.0601 16.9734Z" fill="white"/>
<path fill-rule="evenodd" clip-rule="evenodd" d="M25.8436 3.70848L5.90434 5.06981C4.70999 5.15136 3.78418 6.11156 3.78418 7.26874V26.6623C3.78418 27.7496 4.15845 28.806 4.84804 29.6651L9.14724 35.0209C9.84235 35.8868 10.9362 36.3636 12.0679 36.2939L34.1983 34.9317C35.3326 34.8619 36.2155 33.9524 36.2155 32.854V10.8053C36.2155 10.1257 35.8724 9.48893 35.2962 9.09938L28.2906 4.36287C27.5766 3.88016 26.7128 3.64914 25.8436 3.70848ZM6.89309 7.57125C6.61576 7.36593 6.74775 6.93818 7.09613 6.9132L25.9777 5.55889C26.5793 5.51574 27.1771 5.6814 27.6637 6.0261L31.4521 8.71016C31.5959 8.81206 31.5285 9.03204 31.3504 9.04172L11.3548 10.1292C10.7497 10.1621 10.1524 9.98434 9.67127 9.62812L6.89309 7.57125ZM10.417 13.5384C10.417 12.8888 10.9418 12.3522 11.6128 12.3157L32.7538 11.1643C33.4078 11.1287 33.9584 11.6317 33.9584 12.2648V31.3566C33.9584 32.005 33.4355 32.541 32.7657 32.5791L11.7586 33.7744C11.0307 33.8158 10.417 33.2565 10.417 32.5519V13.5384Z" fill="white"/>
</svg>
