<svg width="40" height="40" viewBox="0 0 40 40" fill="none" xmlns="http://www.w3.org/2000/svg">
<path fill-rule="evenodd" clip-rule="evenodd" d="M16.2705 2.5C13.5242 2.5 11.2978 4.65566 11.2978 7.31481V10.6481H19.9044V11.5741H7.47267C4.72634 11.5741 2.5 13.7297 2.5 16.3889L2.5 23.6111C2.5 26.2702 4.72634 28.4259 7.47268 28.4259H10.3415V24.3518C10.3415 21.6927 12.5679 19.537 15.3142 19.537H24.4945C26.8183 19.537 28.7022 17.713 28.7022 15.463V7.31481C28.7022 4.65566 26.4758 2.5 23.7295 2.5H16.2705ZM15.1229 8.42592C16.0736 8.42592 16.8443 7.67973 16.8443 6.75926C16.8443 5.83878 16.0736 5.09259 15.1229 5.09259C14.1723 5.09259 13.4016 5.83878 13.4016 6.75926C13.4016 7.67973 14.1723 8.42592 15.1229 8.42592Z" fill="url(#paint0_linear_35_8412)"/>
<path fill-rule="evenodd" clip-rule="evenodd" d="M23.7295 37.5001C26.4759 37.5001 28.7022 35.3445 28.7022 32.6853V29.352L20.0957 29.352L20.0957 28.4261L32.5273 28.4261C35.2737 28.4261 37.5 26.2704 37.5 23.6112V16.389C37.5 13.7299 35.2737 11.5742 32.5273 11.5742L29.6585 11.5742V15.6483C29.6585 18.3074 27.4322 20.4631 24.6858 20.4631L15.5055 20.4631C13.1817 20.4631 11.2979 22.2871 11.2979 24.5372L11.2979 32.6853C11.2979 35.3445 13.5242 37.5001 16.2705 37.5001H23.7295ZM24.8771 31.5742C23.9264 31.5742 23.1558 32.3204 23.1558 33.2409C23.1558 34.1613 23.9264 34.9075 24.8771 34.9075C25.8277 34.9075 26.5984 34.1613 26.5984 33.2409C26.5984 32.3204 25.8277 31.5742 24.8771 31.5742Z" fill="url(#paint1_linear_35_8412)"/>
<defs>
<linearGradient id="paint0_linear_35_8412" x1="15.6011" y1="2.5" x2="15.6011" y2="28.4259" gradientUnits="userSpaceOnUse">
<stop stop-color="#327EBD"/>
<stop offset="1" stop-color="#1565A7"/>
</linearGradient>
<linearGradient id="paint1_linear_35_8412" x1="24.3989" y1="11.5742" x2="24.3989" y2="37.5001" gradientUnits="userSpaceOnUse">
<stop stop-color="#FFDA4B"/>
<stop offset="1" stop-color="#F9C600"/>
</linearGradient>
</defs>
</svg>
