<svg width="40" height="40" viewBox="0 0 40 40" fill="none" xmlns="http://www.w3.org/2000/svg">
<path fill-rule="evenodd" clip-rule="evenodd" d="M10.1363 5.98772L20 5L29.8636 5.98772L37.4999 15.6975L20 34.9999L2.5 15.6975L10.1363 5.98772Z" fill="#FDB300"/>
<path d="M9.58828 15.6992L19.9999 35.0017L2.5 15.6992H9.58828ZM30.4117 15.6992L20.0001 35.0017L37.5 15.6992" fill="#EA6C00"/>
<path fill-rule="evenodd" clip-rule="evenodd" d="M9.58887 15.6992H30.4121L20.0005 35.0017" fill="#FDAD00"/>
<path d="M20.0005 5L10.1368 5.98755L9.58887 15.6974L20.0005 5ZM20.0006 5L29.8642 5.98755L30.4122 15.6974" fill="#FDD231"/>
<path d="M37.5 15.6962L29.8637 5.98633L30.4117 15.6962H37.5ZM2.5 15.6962L10.1363 5.98633L9.58828 15.6962" fill="#FDAD00"/>
<path fill-rule="evenodd" clip-rule="evenodd" d="M20.0005 5L9.58887 15.6974H30.4121" fill="#FEEEB7"/>
</svg>
