<svg width="40" height="40" viewBox="0 0 40 40" fill="none" xmlns="http://www.w3.org/2000/svg">
<path d="M33.1253 18.7495C34.851 18.7495 36.25 17.3505 36.25 15.6247C36.25 13.899 34.8509 12.5 33.1251 12.5C31.3992 12.5 30 13.8991 30 15.625V18.7495H33.1253ZM24.375 18.7495C26.1009 18.7495 27.5 17.3504 27.5 15.6245V6.875C27.5 5.14911 26.1009 3.75 24.375 3.75C22.6491 3.75 21.25 5.14911 21.25 6.875V15.6245C21.25 17.3504 22.6491 18.7495 24.375 18.7495Z" fill="#2EB67D"/>
<path d="M6.87473 21.2505C5.14899 21.2505 3.75 22.6495 3.75 24.3753C3.75 26.101 5.14913 27.5 6.87487 27.5C8.60076 27.5 10 26.1009 10 24.375V21.2505H6.87473ZM15.625 21.2505C13.8991 21.2505 12.5 22.6496 12.5 24.3755V33.125C12.5 34.8509 13.8991 36.25 15.625 36.25C17.3509 36.25 18.75 34.8509 18.75 33.125V24.3755C18.75 22.6496 17.3509 21.2505 15.625 21.2505Z" fill="#E01E5A"/>
<path d="M21.2505 33.1253C21.2505 34.851 22.6495 36.25 24.3753 36.25C26.101 36.25 27.5 34.8509 27.5 33.1251C27.5 31.3992 26.1009 30 24.375 30L21.2505 30L21.2505 33.1253ZM21.2505 24.375C21.2505 26.1009 22.6496 27.5 24.3755 27.5L33.125 27.5C34.8509 27.5 36.25 26.1009 36.25 24.375C36.25 22.6491 34.8509 21.25 33.125 21.25L24.3755 21.25C22.6496 21.25 21.2505 22.6491 21.2505 24.375Z" fill="#ECB22E"/>
<path d="M18.7495 6.87473C18.7495 5.14899 17.3505 3.75 15.6247 3.75C13.899 3.75 12.5 5.14912 12.5 6.87486C12.5 8.60076 13.8991 10 15.625 10L18.7495 10L18.7495 6.87473ZM18.7495 15.625C18.7495 13.8991 17.3504 12.5 15.6245 12.5L6.875 12.5C5.14911 12.5 3.75 13.8991 3.75 15.625C3.75 17.3509 5.14911 18.75 6.875 18.75L15.6245 18.75C17.3504 18.75 18.7495 17.3509 18.7495 15.625Z" fill="#36C5F0"/>
</svg>
