<svg width="40" height="40" viewBox="0 0 40 40" fill="none" xmlns="http://www.w3.org/2000/svg">
<path d="M26.2515 3.89599C26.2515 2.79729 25.0213 2.79728 24.4746 2.93461C25.24 2.33033 26.1376 2.47683 26.4565 2.65995L33.8482 6.28433C34.5525 6.62968 34.9993 7.34825 34.9993 8.13571V31.9789C34.9993 32.7769 34.5406 33.5031 33.822 33.8429L26.8666 37.1317C26.3882 37.3377 25.3494 37.8458 24.4746 37.1317C25.5681 37.3377 26.1604 36.5595 26.2515 36.033V3.89599Z" fill="url(#paint0_linear_35_8406)"/>
<path d="M24.564 2.91366C25.1443 2.79899 26.2522 2.85217 26.2522 3.89484V12.1019L3.84199 29.0554C3.45027 29.3518 2.899 29.3026 2.56536 28.9416L0.255666 26.4423C-0.10617 26.0508 -0.080853 25.4379 0.31203 25.0779L24.4753 2.93347L24.564 2.91366Z" fill="url(#paint1_linear_35_8406)"/>
<path d="M26.2522 27.9632L3.84199 11.0098C3.45027 10.7134 2.899 10.7626 2.56536 11.1236L0.255666 13.6229C-0.10617 14.0144 -0.080853 14.6273 0.31203 14.9873L24.4753 37.1317C25.5688 37.3377 26.1611 36.5595 26.2522 36.033V27.9632Z" fill="url(#paint2_linear_35_8406)"/>
<defs>
<linearGradient id="paint0_linear_35_8406" x1="29.737" y1="2.5" x2="29.737" y2="37.5" gradientUnits="userSpaceOnUse">
<stop stop-color="#32B5F1"/>
<stop offset="1" stop-color="#2B9FED"/>
</linearGradient>
<linearGradient id="paint1_linear_35_8406" x1="26.2522" y1="6.91625" x2="1.27713" y2="27.8802" gradientUnits="userSpaceOnUse">
<stop stop-color="#0F6FB3"/>
<stop offset="0.270551" stop-color="#1279B7"/>
<stop offset="0.421376" stop-color="#1176B5"/>
<stop offset="0.618197" stop-color="#0E69AC"/>
<stop offset="0.855344" stop-color="#0F70AF"/>
<stop offset="1" stop-color="#0F6DAD"/>
</linearGradient>
<linearGradient id="paint2_linear_35_8406" x1="1.44402" y1="12.4796" x2="26.3489" y2="33.1008" gradientUnits="userSpaceOnUse">
<stop stop-color="#1791D2"/>
<stop offset="1" stop-color="#1173C5"/>
</linearGradient>
</defs>
</svg>
