<svg width="40" height="40" viewBox="0 0 40 40" fill="none" xmlns="http://www.w3.org/2000/svg">
<path d="M39.9972 20.0007C39.9972 30.1019 32.5098 38.4529 22.7831 39.808C21.8736 39.9341 20.9431 40 19.9986 40C18.9083 40 17.8377 39.9131 16.7951 39.745C7.27298 38.2118 0 29.9548 0 20.0007C0 8.95491 8.95459 0 20 0C31.0454 0 40 8.95491 40 20.0007H39.9972Z" fill="#17134A"/>
<path d="M8.11117 8.82166L17.3348 21.1539L8.05371 31.1809H10.1431L18.2695 22.4026L24.8348 31.1809H31.9438L22.2017 18.1549L30.841 8.82166H28.7516L21.2684 16.9063L15.2216 8.82166H8.11256H8.11117ZM11.1829 10.3604H14.4481L28.8693 29.6422H25.6042L11.1829 10.3604Z" fill="#F1F1F1"/>
</svg>
