<svg xmlns="http://www.w3.org/2000/svg" width="620" height="200" viewBox="0 0 620 200">
  <g>
  <path fill="#15C2B0" fill-opacity="0.07" d="M145.3 45.4 L138.7 70.6 L92.5 33.5 Z M92.5 33.5 L99.5 58.5 L51 80.9 Z M51 80.9 L77 79.1 L93.2 113.1 Z M123 124.9 L149 123.1 L100.5 145.5 Z M100.5 145.5 L107.5 170.5 L61.3 133.4 Z"/>
  <path fill="#15C2B0" fill-opacity="0.15" d="M138.7 70.6 L99.5 58.5 L92.5 33.5 Z M99.5 58.5 L77 79.1 L51 80.9 Z M77 79.1 L106.8 90.9 L93.2 113.1 Z M106.8 90.9 L149 123.1 L123 124.9 Z M149 123.1 L107.5 170.5 L100.5 145.5 Z M107.5 170.5 L54.7 158.6 L61.3 133.4 Z"/>
  <path fill="#15C2B0" fill-opacity="0.26" d="M93.2 113.1 L106.8 90.9 L123 124.9 Z"/>
  <path fill="none" stroke="rgba(255,255,255,0.5)" stroke-width="2" stroke-linejoin="round" d="M145.3 45.4 L92.5 33.5 L51 80.9 L93.2 113.1 L123 124.9 L100.5 145.5 L61.3 133.4 M138.7 70.6 L99.5 58.5 L77 79.1 L106.8 90.9 L149 123.1 L107.5 170.5 L54.7 158.6"/>
  <path fill="none" stroke="rgba(255,255,255,0.5)" stroke-width="1.4" stroke-opacity="0.5" d="M145.3 45.4 L138.7 70.6 M92.5 33.5 L99.5 58.5 M51 80.9 L77 79.1 M93.2 113.1 L106.8 90.9 M123 124.9 L149 123.1 M100.5 145.5 L107.5 170.5 M61.3 133.4 L54.7 158.6 M138.7 70.6 L92.5 33.5 M99.5 58.5 L51 80.9 M77 79.1 L93.2 113.1 M106.8 90.9 L123 124.9 M149 123.1 L100.5 145.5 M107.5 170.5 L61.3 133.4"/>
  <circle cx="92.5" cy="33.5" r="3.2" fill="#15C2B0"/>
  <circle cx="51.0" cy="80.9" r="3.2" fill="#15C2B0"/>
  <circle cx="93.2" cy="113.1" r="3.2" fill="#15C2B0"/>
  <circle cx="123.0" cy="124.9" r="3.2" fill="#15C2B0"/>
  <circle cx="100.5" cy="145.5" r="3.2" fill="#15C2B0"/>
  <circle cx="61.3" cy="133.4" r="3.2" fill="#15C2B0"/>
  <circle cx="138.7" cy="70.6" r="2.6" fill="#15C2B0" fill-opacity="0.8"/>
  <circle cx="99.5" cy="58.5" r="2.6" fill="#15C2B0" fill-opacity="0.8"/>
  <circle cx="77.0" cy="79.1" r="2.6" fill="#15C2B0" fill-opacity="0.8"/>
  <circle cx="106.8" cy="90.9" r="2.6" fill="#15C2B0" fill-opacity="0.8"/>
  <circle cx="149.0" cy="123.1" r="2.6" fill="#15C2B0" fill-opacity="0.8"/>
  <circle cx="107.5" cy="170.5" r="2.6" fill="#15C2B0" fill-opacity="0.8"/>
  <circle cx="54.7" cy="158.6" r="2.6" fill="#15C2B0" fill-opacity="0.8"/>
  <circle cx="145.3" cy="45.4" r="11" fill="#15C2B0" fill-opacity="0.18"></circle>
  <circle cx="145.3" cy="45.4" r="4.6" fill="#15C2B0"/>
  </g>
  <text x="236" y="131" font-family="Space Grotesk, sans-serif" font-weight="500" font-size="97" letter-spacing="-3" fill="#F4F7F8">simple<tspan fill="#15C2B0">x</tspan></text>
</svg>
