<svg width="160" height="160" viewBox="0 0 160 160" fill="none" xmlns="http://www.w3.org/2000/svg">
  <defs>
    <linearGradient id="bg" x1="0" y1="0" x2="1" y2="1">
      <stop offset="0%" stop-color="#0c1512"/>
      <stop offset="100%" stop-color="#070b09"/>
    </linearGradient>
    <radialGradient id="glow" cx="42%" cy="34%" r="60%">
      <stop offset="0%" stop-color="#10b981" stop-opacity="0.38"/>
      <stop offset="100%" stop-color="#10b981" stop-opacity="0"/>
    </radialGradient>
    <linearGradient id="stroke" x1="0" y1="0" x2="1" y2="1">
      <stop offset="0%" stop-color="#7CFFC4"/>
      <stop offset="100%" stop-color="#059669"/>
    </linearGradient>

  </defs>
  <rect x="4" y="4" width="152" height="152" rx="34" fill="url(#bg)"/>
  <rect x="4" y="4" width="152" height="152" rx="34" fill="url(#glow)"/>
  <g transform="translate(80,80) scale(3.2) translate(-12,-12)" stroke="url(#stroke)" stroke-width="1.8" stroke-linecap="round" stroke-linejoin="round" fill="none">
    <circle cx="12" cy="12" r="9"/>
    <line x1="12" y1="4.6" x2="12" y2="6"/>
    <line x1="19.4" y1="12" x2="18" y2="12"/>
    <line x1="12" y1="19.4" x2="12" y2="18"/>
    <line x1="4.6" y1="12" x2="6" y2="12"/>
    <line x1="12" y1="12" x2="12" y2="7.6"/>
    <line x1="12" y1="12" x2="15.2" y2="9.8"/>
    <circle cx="16.6" cy="16.6" r="3.6" fill="#0a120f" stroke="none"/>
    <path d="M17.6 14.2 15.3 17.1h1.6l-0.9 2.1 2.5-2.7h-1.7z" fill="url(#stroke)" stroke="none"/>
  </g>
</svg>
