<svg width="160" height="160" viewBox="0 0 160 160" fill="none" xmlns="http://www.w3.org/2000/svg">
  <defs>
    <linearGradient id="bg" x1="0" y1="0" x2="1" y2="1">
      <stop offset="0%" stop-color="#0c1512"/>
      <stop offset="100%" stop-color="#070b09"/>
    </linearGradient>
    <radialGradient id="glow" cx="42%" cy="34%" r="60%">
      <stop offset="0%" stop-color="#10b981" stop-opacity="0.38"/>
      <stop offset="100%" stop-color="#10b981" stop-opacity="0"/>
    </radialGradient>
    <linearGradient id="stroke" x1="0" y1="0" x2="1" y2="1">
      <stop offset="0%" stop-color="#7CFFC4"/>
      <stop offset="100%" stop-color="#059669"/>
    </linearGradient>

  </defs>
  <rect x="4" y="4" width="152" height="152" rx="34" fill="url(#bg)"/>
  <rect x="4" y="4" width="152" height="152" rx="34" fill="url(#glow)"/>
  <g transform="translate(80,80) scale(3.2) translate(-12,-12)" stroke="url(#stroke)" stroke-width="1.5" stroke-linecap="round" stroke-linejoin="round" fill="none">
    <rect x="2.4" y="6" width="19.2" height="10.4" rx="1.6"/>
    <circle cx="7.6" cy="11.2" r="3"/>
    <line x1="7.6" y1="8.6" x2="7.6" y2="9.6"/>
    <line x1="7.6" y1="12.8" x2="7.6" y2="13.8"/>
    <line x1="5.4" y1="9.9" x2="6.1" y2="10.5"/>
    <line x1="9.1" y1="11.9" x2="9.8" y2="12.5"/>
    <line x1="9.8" y1="9.9" x2="9.1" y2="10.5"/>
    <line x1="6.1" y1="11.9" x2="5.4" y2="12.5"/>
    <rect x="13" y="8.6" width="6.2" height="5.2" rx="1"/>
    <line x1="4.4" y1="16.4" x2="4.4" y2="18.6"/>
    <line x1="7" y1="16.4" x2="7" y2="18.6"/>
    <line x1="9.6" y1="16.4" x2="9.6" y2="18.6"/>
    <line x1="12.2" y1="16.4" x2="12.2" y2="18.6"/>
  </g>
</svg>
