<svg width="160" height="160" viewBox="0 0 160 160" fill="none" xmlns="http://www.w3.org/2000/svg">
  <defs>
    <linearGradient id="bg" x1="0" y1="0" x2="1" y2="1">
      <stop offset="0%" stop-color="#0c1512"/>
      <stop offset="100%" stop-color="#070b09"/>
    </linearGradient>
    <radialGradient id="glow" cx="42%" cy="34%" r="60%">
      <stop offset="0%" stop-color="#10b981" stop-opacity="0.38"/>
      <stop offset="100%" stop-color="#10b981" stop-opacity="0"/>
    </radialGradient>
    <linearGradient id="stroke" x1="0" y1="0" x2="1" y2="1">
      <stop offset="0%" stop-color="#7CFFC4"/>
      <stop offset="100%" stop-color="#059669"/>
    </linearGradient>

  </defs>
  <rect x="4" y="4" width="152" height="152" rx="34" fill="url(#bg)"/>
  <rect x="4" y="4" width="152" height="152" rx="34" fill="url(#glow)"/>
  <g transform="translate(80,80) scale(3.2) translate(-12,-12)" stroke="url(#stroke)" stroke-width="1.5" stroke-linecap="round" stroke-linejoin="round" fill="none">
    <rect x="8" y="1.6" width="8" height="5.4" rx="1"/>
    <line x1="12" y1="7" x2="12" y2="9"/>
    <line x1="9.3" y1="9" x2="14.7" y2="9"/>
    <rect x="2" y="14.4" width="5.4" height="8" rx="1.4"/>
    <circle cx="4.7" cy="20.7" r="0.35" fill="url(#stroke)" stroke="none"/>
    <rect x="15.6" y="14.8" width="6.6" height="6.6" rx="1"/>
    <rect x="17.7" y="16.9" width="2.4" height="2.4"/>
    <line x1="12" y1="9.3" x2="6.6" y2="14.4"/>
    <line x1="12" y1="9.3" x2="17.4" y2="14.8"/>
    <line x1="7.4" y1="17.5" x2="15.6" y2="17.5"/>
  </g>
</svg>
