<svg width="44" height="44" viewBox="0 0 44 44" fill="none" xmlns="http://www.w3.org/2000/svg">
<path d="M3.95159 34.213C4.19532 34.2096 4.42862 34.1137 4.6041 33.9447L8.27923 30.2741C8.44655 30.0964 8.53971 29.8616 8.53971 29.6176C8.53971 29.3736 8.44655 29.1389 8.27923 28.9611C8.19381 28.872 8.09096 28.8013 7.97707 28.7535C7.86317 28.7057 7.74066 28.6818 7.61713 28.6832C7.36873 28.6867 7.13138 28.7864 6.95503 28.9611L3.28949 32.6221C3.17049 32.7568 3.09176 32.9221 3.06228 33.0993C3.03281 33.2765 3.05378 33.4584 3.12281 33.6242C3.19183 33.7901 3.30613 33.9332 3.45267 34.0373C3.5992 34.1414 3.77208 34.2023 3.95159 34.213Z" fill="url(#paint0_linear_40_2131)"/>
<path d="M10.6685 40.9409C10.9169 40.9373 11.1543 40.8377 11.3306 40.6629L14.9962 37.0019C15.1152 36.8673 15.1939 36.7019 15.2234 36.5248C15.2529 36.3476 15.2319 36.1657 15.1629 35.9998C15.0938 35.834 14.9795 35.6908 14.833 35.5867C14.6865 35.4826 14.5136 35.4217 14.3341 35.411C14.0903 35.4144 13.8571 35.5104 13.6816 35.6794L10.016 39.35C9.84871 39.5277 9.75556 39.7625 9.75556 40.0065C9.75556 40.2504 9.84871 40.4852 10.016 40.6629C10.19 40.8354 10.4235 40.9349 10.6685 40.9409Z" fill="url(#paint1_linear_40_2131)"/>
<path d="M29.0922 20.3165C30.3513 20.3184 31.5721 19.8841 32.5465 19.0876C33.5209 18.291 34.1884 17.1816 34.4354 15.9485C34.6824 14.7153 34.4935 13.4348 33.901 12.3252C33.3084 11.2155 32.3488 10.3456 31.1859 9.86352C30.0229 9.38148 28.7285 9.31724 27.5235 9.68174C26.3184 10.0462 25.2772 10.8169 24.5774 11.8624C23.8776 12.9079 23.5625 14.1634 23.6859 15.4149C23.8092 16.6665 24.3634 17.8365 25.2539 18.7256C25.7565 19.2311 26.3546 19.6321 27.0134 19.9052C27.6723 20.1782 28.3788 20.3181 29.0922 20.3165ZM26.5685 12.3715C27.1526 11.7884 27.921 11.4256 28.7429 11.3448C29.5648 11.2641 30.3893 11.4706 31.0759 11.9289C31.7624 12.3873 32.2687 13.0693 32.5082 13.8587C32.7478 14.648 32.7059 15.4959 32.3898 16.2579C32.0736 17.0199 31.5026 17.6488 30.7742 18.0375C30.0458 18.4261 29.205 18.5505 28.395 18.3894C27.5851 18.2283 26.8561 17.7917 26.3323 17.154C25.8086 16.5163 25.5224 15.7169 25.5226 14.8921C25.5216 14.4238 25.6136 13.9599 25.7931 13.5273C25.9726 13.0947 26.2362 12.7019 26.5685 12.3715Z" fill="url(#paint2_linear_40_2131)"/>
<path d="M3.95159 40.96C4.19865 40.9591 4.43581 40.8629 4.61369 40.6917L11.6281 33.6763C11.7471 33.5417 11.8258 33.3764 11.8553 33.1992C11.8848 33.022 11.8638 32.8401 11.7948 32.6743C11.7258 32.5084 11.6115 32.3653 11.4649 32.2612C11.3184 32.157 11.1455 32.0962 10.966 32.0854C10.7189 32.0864 10.4818 32.1825 10.3039 32.3538L3.2703 39.3691C3.10018 39.5474 3.00528 39.7842 3.00528 40.0304C3.00528 40.2767 3.10018 40.5135 3.2703 40.6917C3.45295 40.8676 3.69791 40.9641 3.95159 40.96Z" fill="url(#paint3_linear_40_2131)"/>
<path d="M16.8002 33.7626C17.1145 34.0745 17.4985 34.3075 17.9205 34.4424C18.3425 34.5774 18.7906 34.6104 19.2278 34.5389H19.6884L20.4561 39.4266C20.5015 39.7355 20.6249 40.0278 20.8146 40.2759C21.0042 40.524 21.254 40.7199 21.5404 40.845C21.8272 40.9678 22.1396 41.0188 22.4506 40.9938C22.7616 40.9687 23.0618 40.8683 23.3252 40.7013L29.0826 36.8678C29.4402 36.6349 29.7389 36.3225 29.9553 35.955C30.1717 35.5876 30.3 35.175 30.33 34.7497L30.8194 29.009L30.9921 28.8653C33.849 26.5244 36.2301 23.6582 38.0065 20.4219C40.2489 15.8496 41.2609 10.773 40.9428 5.69162C40.908 5.00387 40.6188 4.35351 40.1313 3.86657C39.6437 3.37964 38.9926 3.09081 38.304 3.05607C33.2154 2.74136 28.1325 3.75537 23.5555 5.9983C20.3152 7.77252 17.4455 10.1507 15.1017 13.0041L14.9578 13.1766H14.8714L9.24839 13.6078C8.82425 13.6393 8.41309 13.768 8.04694 13.9841C7.68078 14.2002 7.36951 14.4978 7.13734 14.8537L3.29909 20.604C3.13182 20.8671 3.03129 21.1669 3.00621 21.4775C2.98113 21.7881 3.03225 22.1002 3.15515 22.3866C3.27389 22.6816 3.46712 22.9408 3.716 23.139C3.96489 23.3372 4.26095 23.4676 4.57531 23.5175L9.49787 24.2842V24.4759C9.49329 24.5653 9.49329 24.6548 9.49787 24.7442C9.42464 25.181 9.45697 25.6289 9.59217 26.0507C9.72737 26.4725 9.96152 26.8559 10.2751 27.1689L16.8002 33.7626ZM18.9208 32.718H18.7673C18.6453 32.7181 18.5247 32.6935 18.4125 32.6458C18.3004 32.598 18.1991 32.528 18.1148 32.44L11.5226 25.856C11.4189 25.7514 11.3407 25.6244 11.2941 25.4848C11.2475 25.3451 11.2338 25.1967 11.2539 25.0509C11.4521 23.9057 11.7507 22.78 12.1463 21.687L12.2518 21.3995L22.5767 31.7596L22.2889 31.865C21.1922 32.2435 20.0655 32.5289 18.9208 32.718ZM28.5164 34.5772C28.5031 34.7169 28.4593 34.8519 28.388 34.9728C28.3167 35.0937 28.2197 35.1975 28.1038 35.2768L22.3464 39.1104L21.5596 34.0405H21.7227C24.1486 33.3137 26.4493 32.2214 28.5452 30.8012L28.8715 30.5808L28.5164 34.5772ZM16.5315 14.202C18.7127 11.5355 21.3873 9.3132 24.4095 7.6563C28.6953 5.56984 33.4494 4.62876 38.208 4.92492C38.4331 4.94438 38.644 5.04252 38.8038 5.20205C38.9635 5.36158 39.0617 5.57227 39.0812 5.79704C39.3796 10.5509 38.4338 15.3005 36.3369 19.5786C34.6779 22.597 32.4529 25.2684 29.7831 27.4469C28.1797 28.7949 26.4209 29.9468 24.5438 30.8779L24.4191 30.9354L13.0387 19.5594L13.0962 19.4348C14.0264 17.5589 15.1798 15.8019 16.5315 14.202ZM9.93927 22.4633L4.91116 21.6774L5.07428 21.4282L8.73982 15.8888C8.81312 15.7769 8.90904 15.6816 9.02141 15.609C9.13378 15.5364 9.26013 15.4881 9.39232 15.4671L13.4513 15.1508L13.2306 15.4767C11.8087 17.57 10.715 19.8678 9.98725 22.2908L9.93927 22.4633Z" fill="url(#paint4_linear_40_2131)"/>
<defs>
<linearGradient id="paint0_linear_40_2131" x1="3" y1="22" x2="41" y2="22" gradientUnits="userSpaceOnUse">
<stop stop-color="#9A4DFE"/>
<stop offset="1" stop-color="#E87CFF"/>
</linearGradient>
<linearGradient id="paint1_linear_40_2131" x1="3" y1="22" x2="41" y2="22" gradientUnits="userSpaceOnUse">
<stop stop-color="#9A4DFE"/>
<stop offset="1" stop-color="#E87CFF"/>
</linearGradient>
<linearGradient id="paint2_linear_40_2131" x1="3" y1="22" x2="41" y2="22" gradientUnits="userSpaceOnUse">
<stop stop-color="#9A4DFE"/>
<stop offset="1" stop-color="#E87CFF"/>
</linearGradient>
<linearGradient id="paint3_linear_40_2131" x1="3" y1="22" x2="41" y2="22" gradientUnits="userSpaceOnUse">
<stop stop-color="#9A4DFE"/>
<stop offset="1" stop-color="#E87CFF"/>
</linearGradient>
<linearGradient id="paint4_linear_40_2131" x1="3" y1="22" x2="41" y2="22" gradientUnits="userSpaceOnUse">
<stop stop-color="#9A4DFE"/>
<stop offset="1" stop-color="#E87CFF"/>
</linearGradient>
</defs>
</svg>
