<svg width="44" height="44" viewBox="0 0 44 44" fill="none" xmlns="http://www.w3.org/2000/svg">
<path d="M15.035 33.3002H14.8974C14.4131 33.2854 13.9469 33.1122 13.5698 32.807L13.4124 32.6788C13.194 32.4682 13.0204 32.2155 12.9021 31.9357C12.7838 31.656 12.7232 31.3551 12.724 31.0513C12.7256 30.7826 12.8274 30.5242 13.0094 30.327C13.1914 30.1298 13.4404 30.0082 13.7074 29.986H13.8058C14.0834 29.9858 14.3502 30.0937 14.5502 30.2868C14.7501 30.48 14.8675 30.7434 14.8777 31.0217V31.1697H15.0252C15.5182 31.1448 16.0083 31.0788 16.4905 30.9724C16.7952 30.9031 17.085 30.7795 17.346 30.6074C17.4692 30.5434 17.5743 30.4493 17.6516 30.3338C17.729 30.2183 17.7761 30.0851 17.7886 29.9466C17.7888 29.8547 17.7536 29.7663 17.6902 29.7C17.5978 29.6069 17.4956 29.5243 17.3854 29.4534C16.9105 29.1996 16.3998 29.02 15.8709 28.9207C14.849 28.7458 13.8899 28.3073 13.0879 27.6483C12.8138 27.4027 12.6001 27.0968 12.4636 26.7546C12.3271 26.4123 12.2715 26.043 12.3012 25.6756C12.3243 25.1262 12.5053 24.5952 12.8224 24.1467C13.3533 23.4859 14.0857 23.0181 14.9072 22.8151H15.0154V22.1641C15.0011 22.0149 15.018 21.8644 15.0651 21.7222C15.1123 21.58 15.1885 21.4492 15.289 21.3383C15.3894 21.2273 15.5119 21.1387 15.6486 21.0781C15.7852 21.0174 15.9329 20.9861 16.0824 20.9861C16.2318 20.9861 16.3795 21.0174 16.5162 21.0781C16.6528 21.1387 16.7753 21.2273 16.8757 21.3383C16.9762 21.4492 17.0525 21.58 17.0996 21.7222C17.1467 21.8644 17.1636 22.0149 17.1494 22.1641V22.5192H17.2969C17.8473 22.5271 18.373 22.75 18.7621 23.1406C18.9805 23.3512 19.1541 23.6039 19.2725 23.8837C19.3908 24.1634 19.4513 24.4643 19.4505 24.7681C19.4648 24.9173 19.4479 25.0678 19.4007 25.21C19.3536 25.3522 19.2774 25.483 19.1769 25.5939C19.0764 25.7048 18.954 25.7935 18.8173 25.8541C18.6807 25.9148 18.5329 25.9461 18.3835 25.9461C18.2341 25.9461 18.0864 25.9148 17.9497 25.8541C17.8131 25.7935 17.6906 25.7048 17.5901 25.5939C17.4897 25.483 17.4134 25.3522 17.3663 25.21C17.3192 25.0678 17.3022 24.9173 17.3165 24.7681V24.5906H17.1592C16.6226 24.6253 16.0897 24.7045 15.5661 24.8273C15.2926 24.8975 15.0331 25.0143 14.799 25.1725C14.613 25.2976 14.4799 25.4873 14.4253 25.7052V25.8038C14.4253 25.9024 14.4253 26.0701 14.7302 26.2575C15.2221 26.5458 15.7618 26.7429 16.3233 26.8395C17.3258 27.0094 18.2695 27.43 19.067 28.0626C19.35 28.3038 19.5736 28.6073 19.7203 28.9496C19.867 29.2918 19.9329 29.6634 19.9127 30.0353C19.8992 30.5652 19.7392 31.0808 19.4505 31.5247C18.9183 32.2555 18.1446 32.7729 17.2674 32.9846H17.1592V33.6257C17.1735 33.7749 17.1565 33.9254 17.1094 34.0676C17.0623 34.2098 16.986 34.3406 16.8856 34.4515C16.7851 34.5625 16.6626 34.6511 16.526 34.7117C16.3894 34.7724 16.2416 34.8037 16.0922 34.8037C15.9428 34.8037 15.795 34.7724 15.6584 34.7117C15.5218 34.6511 15.3993 34.5625 15.2988 34.4515C15.1983 34.3406 15.1221 34.2098 15.075 34.0676C15.0279 33.9254 15.0109 33.7749 15.0252 33.6257L15.035 33.3002Z" fill="url(#paint0_linear_40_2106)"/>
<path d="M27.9078 2.84108C31.2788 2.83907 34.5223 4.13289 36.9712 6.45639C39.4202 8.77988 40.8882 11.9564 41.0734 15.3324C41.2585 18.7084 40.1468 22.0273 37.9668 24.6062C35.7867 27.1851 32.7043 28.828 29.3534 29.1969H29.2354V29.3153C28.9683 31.7947 28.0079 34.1478 26.4648 36.1033C24.9218 38.0588 22.859 39.5368 20.5145 40.3671C18.17 41.1973 15.6393 41.3458 13.2142 40.7955C10.7892 40.2452 8.56866 39.0185 6.80877 37.2569C5.04889 35.4953 3.82136 33.2706 3.2678 30.8393C2.71423 28.4081 2.85718 25.8694 3.68015 23.5162C4.50312 21.1629 5.97259 19.0909 7.91904 17.5393C9.86549 15.9876 12.2096 15.0195 14.681 14.7466H14.7892V14.6282C15.124 11.3795 16.6532 8.37231 19.0786 6.1931C21.504 4.01388 24.6517 2.81886 27.9078 2.84108ZM16.1069 16.7982C13.9212 16.7982 11.7845 17.4482 9.96699 18.666C8.14947 19.8838 6.73271 21.6147 5.89581 23.64C5.05891 25.6653 4.83944 27.894 5.26515 30.0443C5.69085 32.1947 6.74262 34.1702 8.28749 35.7211C9.83236 37.272 11.801 38.3287 13.9445 38.7576C16.088 39.1865 18.3102 38.9684 20.3301 38.1307C22.35 37.2931 24.077 35.8736 25.2928 34.0517C26.5085 32.2298 27.1585 30.0872 27.1604 27.8949C27.1604 24.9536 25.9962 22.1326 23.9235 20.0519C21.8509 17.9711 19.0394 16.8008 16.1069 16.7982ZM27.9078 4.96178C25.238 4.95076 22.6558 5.91625 20.6447 7.67744C18.6335 9.43863 17.3314 11.8747 16.9822 14.5296V14.6874H17.1395C20.2778 14.9399 23.2228 16.3094 25.4427 18.5487C27.6627 20.7879 29.0113 23.7495 29.2452 26.8987V27.0466H29.4026C32.2388 26.7381 34.846 25.3407 36.6779 23.1471C38.5098 20.9535 39.4243 18.1339 39.2298 15.2791C39.0353 12.4243 37.7469 9.75568 35.6346 7.83242C33.5222 5.90916 30.7497 4.88044 27.898 4.96178H27.9078Z" fill="url(#paint1_linear_40_2106)"/>
<path d="M9.4788 2.3183C9.57764 2.2175 9.6955 2.13744 9.8255 2.08279C9.95551 2.02814 10.0951 2 10.236 2C10.377 2 10.5165 2.02814 10.6465 2.08279C10.7765 2.13744 10.8944 2.2175 10.9932 2.3183L13.8058 5.10973C13.8787 5.18322 13.9416 5.26615 13.9926 5.35633V5.45496C14.0465 5.58468 14.0742 5.7238 14.0742 5.86431C14.0742 6.00481 14.0465 6.14393 13.9926 6.27365C13.9436 6.40697 13.8665 6.5281 13.7664 6.62874L10.9932 9.41031C10.8952 9.512 10.7774 9.59247 10.6472 9.64676C10.517 9.70104 10.377 9.72799 10.236 9.72595C10.0952 9.72685 9.95556 9.69938 9.82549 9.64516C9.69542 9.59094 9.57752 9.51108 9.4788 9.41031C9.28708 9.21007 9.18002 8.94322 9.18002 8.6656C9.18002 8.38798 9.28708 8.12113 9.4788 7.92089L10.1868 7.2107L10.4327 6.93452H8.22987C7.14568 6.93712 6.10663 7.37027 5.33999 8.13923C4.57335 8.90818 4.1415 9.95036 4.13891 11.0378V12.8527C4.1532 13.0019 4.13624 13.1524 4.08913 13.2947C4.04201 13.4369 3.96577 13.5676 3.8653 13.6786C3.76483 13.7895 3.64235 13.8781 3.50572 13.9388C3.36909 13.9994 3.22132 14.0308 3.07191 14.0308C2.9225 14.0308 2.77474 13.9994 2.63811 13.9388C2.50148 13.8781 2.379 13.7895 2.27853 13.6786C2.17806 13.5676 2.10182 13.4369 2.0547 13.2947C2.00758 13.1524 1.99062 13.0019 2.00492 12.8527V11.0378C2.00752 9.38268 2.66419 7.79608 3.83104 6.62572C4.99788 5.45536 6.57971 4.7967 8.22987 4.79409H10.4425L10.1868 4.53764L9.4788 3.83731C9.28059 3.6345 9.16957 3.36181 9.16957 3.07781C9.16957 2.79381 9.28059 2.52112 9.4788 2.3183Z" fill="url(#paint2_linear_40_2106)"/>
<path d="M40.9379 30.0057C41.2058 30.0073 41.4634 30.1094 41.66 30.292C41.8566 30.4745 41.9779 30.7243 42 30.9921V32.9648C41.9974 34.6217 41.3394 36.2098 40.1704 37.3804C39.0014 38.5511 37.4171 39.2086 35.7652 39.2086H33.5722L34.5261 40.1653C34.6757 40.3157 34.7776 40.5071 34.8188 40.7155C34.8601 40.9239 34.8388 41.1398 34.7578 41.3361C34.6768 41.5324 34.5397 41.7002 34.3637 41.8183C34.1877 41.9365 33.9807 41.9997 33.7689 42C33.4852 41.9975 33.2136 41.8843 33.0117 41.6844L30.2483 38.9028C30.1831 38.8287 30.1239 38.7496 30.0713 38.6661V38.5773C29.988 38.3446 29.988 38.09 30.0713 37.8572V37.7586C30.121 37.6367 30.1946 37.526 30.2876 37.4331L33.0117 34.5529C33.2139 34.3541 33.4858 34.2427 33.7689 34.2427C34.0521 34.2427 34.3239 34.3541 34.5261 34.5529C34.6266 34.652 34.7064 34.7703 34.7609 34.9007C34.8154 35.0311 34.8435 35.171 34.8435 35.3124C34.8435 35.4538 34.8154 35.5938 34.7609 35.7242C34.7064 35.8546 34.6266 35.9728 34.5261 36.0719L33.8279 36.7821L33.5722 37.0287H35.775C36.3123 37.0287 36.8443 36.9226 37.3406 36.7163C37.8369 36.5101 38.2879 36.2079 38.6678 35.8269C39.0477 35.4458 39.349 34.9935 39.5546 34.4957C39.7602 33.9978 39.866 33.4642 39.866 32.9254V31.0809C39.866 30.7957 39.9789 30.5223 40.18 30.3206C40.381 30.119 40.6536 30.0057 40.9379 30.0057Z" fill="url(#paint3_linear_40_2106)"/>
<defs>
<linearGradient id="paint0_linear_40_2106" x1="2" y1="22" x2="42" y2="22" gradientUnits="userSpaceOnUse">
<stop stop-color="#9A4DFE"/>
<stop offset="1" stop-color="#E87CFF"/>
</linearGradient>
<linearGradient id="paint1_linear_40_2106" x1="2" y1="22" x2="42" y2="22" gradientUnits="userSpaceOnUse">
<stop stop-color="#9A4DFE"/>
<stop offset="1" stop-color="#E87CFF"/>
</linearGradient>
<linearGradient id="paint2_linear_40_2106" x1="2" y1="22" x2="42" y2="22" gradientUnits="userSpaceOnUse">
<stop stop-color="#9A4DFE"/>
<stop offset="1" stop-color="#E87CFF"/>
</linearGradient>
<linearGradient id="paint3_linear_40_2106" x1="2" y1="22" x2="42" y2="22" gradientUnits="userSpaceOnUse">
<stop stop-color="#9A4DFE"/>
<stop offset="1" stop-color="#E87CFF"/>
</linearGradient>
</defs>
</svg>
