<svg width="44" height="44" viewBox="0 0 44 44" fill="none" xmlns="http://www.w3.org/2000/svg">
<path d="M22 31.9478C21.8288 31.9478 21.6614 31.8971 21.5191 31.802C21.3767 31.707 21.2657 31.5719 21.2002 31.4138C21.1347 31.2557 21.1176 31.0818 21.151 30.914C21.1844 30.7462 21.2668 30.5921 21.3879 30.4711C21.5089 30.3501 21.6632 30.2677 21.8311 30.2344C21.999 30.201 22.1731 30.2181 22.3313 30.2836C22.4895 30.3491 22.6247 30.4599 22.7198 30.6022C22.8149 30.7444 22.8657 30.9117 22.8657 31.0828C22.8657 31.1964 22.8433 31.3089 22.7998 31.4138C22.7563 31.5188 22.6925 31.6141 22.6121 31.6944C22.5317 31.7748 22.4363 31.8385 22.3313 31.882C22.2262 31.9254 22.1137 31.9478 22 31.9478Z" fill="url(#paint0_linear_40_2121)"/>
<path d="M10.9552 21.2493C10.747 21.251 10.5454 21.1767 10.3881 21.0405C10.2142 20.8874 10.1082 20.6716 10.0933 20.4405C10.0784 20.2094 10.1557 19.9818 10.3085 19.8076L15.8109 13.5536C16.1309 13.1883 16.5241 12.8941 16.9649 12.6901C17.4058 12.4862 17.8846 12.3769 18.3704 12.3694C18.8561 12.3619 19.3381 12.4563 19.7851 12.6466C20.232 12.8369 20.6341 13.1188 20.9652 13.474L22.9552 15.6316C23.1156 15.8071 23.3108 15.9472 23.5284 16.043C23.7459 16.1389 23.9811 16.1884 24.2189 16.1884C24.4615 16.1854 24.701 16.1336 24.9232 16.0363C25.1455 15.9389 25.3458 15.7979 25.5124 15.6217L30.2886 10.4116L26.995 10.7497C26.7807 10.7415 26.5765 10.6567 26.4194 10.5107C26.2624 10.3647 26.163 10.1673 26.1393 9.95426C26.119 9.72422 26.1905 9.49548 26.3383 9.31792C26.4749 9.15616 26.666 9.05004 26.8756 9.01964L31.9005 8.51255H32.0398C32.3625 8.50316 32.6769 8.61563 32.9203 8.82755C33.1638 9.03946 33.3183 9.33526 33.3532 9.65598L33.8408 14.6771C33.8551 14.7905 33.8457 14.9056 33.8131 15.0151C33.7806 15.1246 33.7256 15.2262 33.6517 15.3134C33.5051 15.492 33.2944 15.6062 33.0647 15.6316C32.8386 15.6485 32.6149 15.5771 32.4404 15.4324C32.266 15.2878 32.1545 15.0812 32.1294 14.8561L31.791 11.4457L26.8756 16.7949C26.5511 17.1464 26.1572 17.4268 25.7188 17.6184C25.2803 17.8101 24.8069 17.9089 24.3284 17.9085C23.8527 17.9023 23.3829 17.8025 22.9459 17.6149C22.5088 17.4272 22.113 17.1553 21.7811 16.8148L19.7413 14.6473C19.5748 14.4749 19.3755 14.3377 19.155 14.2438C18.9345 14.1499 18.6974 14.1011 18.4577 14.1004C18.2104 14.1011 17.9661 14.1546 17.7413 14.2576C17.5164 14.3605 17.3163 14.5103 17.1542 14.697L11.6517 20.961C11.5654 21.059 11.4577 21.1359 11.337 21.1859C11.2162 21.2359 11.0856 21.2576 10.9552 21.2493Z" fill="url(#paint1_linear_40_2121)"/>
<path d="M9.70149 41.9702C9.48663 41.9472 9.28786 41.8456 9.14342 41.685C8.99898 41.5244 8.91908 41.3161 8.91908 41.1002C8.91908 40.8842 8.99898 40.6759 9.14342 40.5153C9.28786 40.3547 9.48663 40.2532 9.70149 40.2302H14.6269L16.4975 36.5116H8.33831C6.65809 36.5089 5.04745 35.8408 3.85935 34.6536C2.67126 33.4664 2.00263 31.8569 2 30.178V8.30375C2.0105 6.62997 2.6826 5.02816 3.86985 3.84739C5.05709 2.66662 6.66324 2.00259 8.33831 2H35.6617C37.3419 2.00263 38.9526 2.67076 40.1406 3.85797C41.3287 5.04518 41.9974 6.65462 42 8.33358V30.2078C41.9974 31.8868 41.3287 33.4962 40.1406 34.6834C38.9526 35.8706 37.3419 36.5388 35.6617 36.5414H27.5025L29.3731 40.26H34.2985C34.5134 40.283 34.7121 40.3846 34.8566 40.5452C35.001 40.7058 35.0809 40.9141 35.0809 41.13C35.0809 41.3459 35.001 41.5542 34.8566 41.7148C34.7121 41.8755 34.5134 41.977 34.2985 42L9.70149 41.9702ZM16.5771 40.2302H27.4229L25.5622 36.5116H18.4378L16.5771 40.2302ZM3.74129 30.178C3.73604 30.7846 3.85106 31.3862 4.07973 31.9481C4.3084 32.51 4.64618 33.0211 5.07357 33.4519C5.50097 33.8827 6.00952 34.2246 6.56986 34.4579C7.13021 34.6912 7.73126 34.8114 8.33831 34.8113H35.6617C36.8809 34.8113 38.0502 34.3274 38.9123 33.4659C39.7744 32.6044 40.2587 31.436 40.2587 30.2177V27.4338H3.74129V30.178ZM8.33831 3.74C7.1191 3.74 5.94984 4.22396 5.08773 5.08543C4.22562 5.94689 3.74129 7.11529 3.74129 8.33358V25.654H40.2587V8.33358C40.2587 7.11529 39.7744 5.94689 38.9123 5.08543C38.0502 4.22396 36.8809 3.74 35.6617 3.74H8.33831Z" fill="url(#paint2_linear_40_2121)"/>
<defs>
<linearGradient id="paint0_linear_40_2121" x1="2" y1="22" x2="42" y2="22" gradientUnits="userSpaceOnUse">
<stop stop-color="#9A4DFE"/>
<stop offset="1" stop-color="#E87CFF"/>
</linearGradient>
<linearGradient id="paint1_linear_40_2121" x1="2" y1="22" x2="42" y2="22" gradientUnits="userSpaceOnUse">
<stop stop-color="#9A4DFE"/>
<stop offset="1" stop-color="#E87CFF"/>
</linearGradient>
<linearGradient id="paint2_linear_40_2121" x1="2" y1="22" x2="42" y2="22" gradientUnits="userSpaceOnUse">
<stop stop-color="#9A4DFE"/>
<stop offset="1" stop-color="#E87CFF"/>
</linearGradient>
</defs>
</svg>
