<svg width="24" height="24" viewBox="0 0 24 24" fill="none" xmlns="http://www.w3.org/2000/svg">
<path d="M17 12C17 14.7614 14.7614 17 12 17C9.23858 17 7 14.7614 7 12C7 9.23858 9.23858 7 12 7" stroke="white" stroke-width="1.5" stroke-linecap="round"/>
<path d="M14 2.20004C13.3538 2.06886 12.6849 2 12 2C6.47715 2 2 6.47715 2 12C2 17.5228 6.47715 22 12 22C17.5228 22 22 17.5228 22 12C22 11.3151 21.9311 10.6462 21.8 10" stroke="white" stroke-width="1.5" stroke-linecap="round"/>
<path d="M11.4697 11.4697C11.1768 11.7626 11.1768 12.2374 11.4697 12.5303C11.7626 12.8232 12.2374 12.8232 12.5303 12.5303L12 12L11.4697 11.4697ZM19.6909 4.30912L18.9652 4.49846C19.0337 4.76115 19.2389 4.96628 19.5015 5.03482L19.6909 4.30912ZM19.1745 2.33007L18.4488 2.51942V2.51942L19.1745 2.33007ZM18.298 2.19006L18.8284 2.72039V2.72039L18.298 2.19006ZM17.1487 3.33944L16.6183 2.80911V2.80911L17.1487 3.33944ZM16.2781 6.15129L15.5524 6.34064L15.5524 6.34064L16.2781 6.15129ZM21.6699 4.82548L21.4806 5.55118V5.55118L21.6699 4.82548ZM21.8099 5.70196L21.2796 5.17163L21.2796 5.17163L21.8099 5.70196ZM20.6606 6.85135L21.1909 7.38168H21.1909L20.6606 6.85135ZM17.8487 7.72186L17.6594 8.44757V8.44757L17.8487 7.72186ZM16.6031 7.39687L16.0728 6.86654L11.4697 11.4697L12 12L12.5303 12.5303L17.1335 7.9272L16.6031 7.39687ZM19.6909 4.30912L20.4166 4.11977L19.9002 2.14072L19.1745 2.33007L18.4488 2.51942L18.9652 4.49846L19.6909 4.30912ZM18.298 2.19006L17.7677 1.65973L16.6183 2.80911L17.1487 3.33944L17.679 3.86977L18.8284 2.72039L18.298 2.19006ZM16.2781 6.15129L15.5524 6.34064L15.8774 7.58622L16.6031 7.39687L17.3288 7.20752L17.0038 5.96194L16.2781 6.15129ZM19.6909 4.30912L19.5015 5.03482L21.4806 5.55118L21.6699 4.82548L21.8593 4.09977L19.8802 3.58341L19.6909 4.30912ZM21.8099 5.70196L21.2796 5.17163L20.1302 6.32102L20.6606 6.85135L21.1909 7.38168L22.3403 6.23229L21.8099 5.70196ZM17.8487 7.72186L18.0381 6.99616L16.7925 6.67117L16.6031 7.39687L16.4138 8.12258L17.6594 8.44757L17.8487 7.72186ZM20.6606 6.85135L20.1302 6.32102C19.5092 6.94201 18.6861 7.16524 18.0381 6.99616L17.8487 7.72186L17.6594 8.44757C18.8985 8.77087 20.2525 8.32009 21.1909 7.38168L20.6606 6.85135ZM21.6699 4.82548L21.4806 5.55118C21.4294 5.53782 21.371 5.5052 21.3242 5.45125C21.2797 5.39989 21.2597 5.34557 21.253 5.3035C21.2397 5.22031 21.2733 5.17792 21.2796 5.17163L21.8099 5.70196L22.3403 6.23229C22.6526 5.91996 22.8014 5.48764 22.7342 5.06688C22.6647 4.63188 22.3587 4.23007 21.8593 4.09977L21.6699 4.82548ZM17.1487 3.33944L16.6183 2.80911C15.6799 3.74753 15.2291 5.10151 15.5524 6.34064L16.2781 6.15129L17.0038 5.96194C16.8348 5.31391 17.058 4.49077 17.679 3.86977L17.1487 3.33944ZM19.1745 2.33007L19.9002 2.14072C19.7699 1.64133 19.3681 1.33528 18.9331 1.26579C18.5124 1.19858 18.08 1.3474 17.7677 1.65973L18.298 2.19006L18.8284 2.72039C18.8221 2.72667 18.7797 2.7603 18.6965 2.74701C18.6544 2.74029 18.6001 2.72026 18.5487 2.67576C18.4948 2.62902 18.4622 2.57065 18.4488 2.51942L19.1745 2.33007Z" fill="white"/>
</svg>
