<svg width="44" height="44" viewBox="0 0 44 44" fill="none" xmlns="http://www.w3.org/2000/svg">
<path d="M3.6955 30.0231C3.47455 30.2421 3.29928 30.5027 3.17989 30.7899C3.0605 31.0772 2.99936 31.3853 3.00001 31.6963V38.631C2.99901 38.9406 3.06003 39.2473 3.17948 39.5329C3.29893 39.8185 3.47439 40.0774 3.6955 40.2941C3.91341 40.5164 4.17387 40.6926 4.46134 40.8121C4.74881 40.9316 5.05741 40.9919 5.36871 40.9896H10.9125C11.5399 40.9869 12.1408 40.7365 12.5845 40.2929C13.0281 39.8492 13.2785 39.2483 13.2812 38.6209V31.6963C13.2785 31.0689 13.0281 30.468 12.5845 30.0243C12.1408 29.5807 11.5399 29.3303 10.9125 29.3276H5.36871C5.05774 29.3275 4.74981 29.3889 4.46265 29.5083C4.1755 29.6276 3.91478 29.8026 3.6955 30.0231ZM11.3157 31.2931V39.0342H5.01593V31.2931H11.3157Z" fill="url(#paint0_linear_40_2113)"/>
<path d="M33.0875 40.9997H38.6313C39.2587 40.997 39.8596 40.7466 40.3033 40.303C40.7469 39.8593 40.9973 39.2584 41 38.631V20.6089C40.9973 19.9815 40.7469 19.3806 40.3033 18.9369C39.8596 18.4933 39.2587 18.2429 38.6313 18.2402H33.0875C32.4601 18.2429 31.8592 18.4933 31.4155 18.9369C30.9719 19.3806 30.7215 19.9815 30.7188 20.6089V38.631C30.7215 39.2584 30.9719 39.8593 31.4155 40.303C31.8592 40.7466 32.4601 40.997 33.0875 40.9997ZM32.6844 20.2057H39.0345V39.0342H32.6844V20.2057Z" fill="url(#paint1_linear_40_2113)"/>
<path d="M7.31407 21.4455C7.17585 21.6417 7.11813 21.8834 7.1528 22.1208C7.17864 22.3592 7.2939 22.5789 7.47534 22.7357C7.56067 22.8208 7.6634 22.8865 7.77648 22.9283C7.88956 22.97 8.01033 22.9868 8.13052 22.9776C8.21418 22.9881 8.29884 22.9881 8.3825 22.9776C13.3136 21.7281 18.0583 19.8336 22.4939 17.3431C27.3205 14.626 31.7331 11.2317 35.5973 7.26368L36.2626 6.48756V10.9124C36.2611 11.0422 36.2863 11.1709 36.3365 11.2905C36.3868 11.4102 36.4612 11.5182 36.5549 11.6079C36.7418 11.7837 36.9888 11.8815 37.2454 11.8815C37.5019 11.8815 37.7489 11.7837 37.9358 11.6079C38.0387 11.5227 38.1225 11.4167 38.1816 11.2968C38.2406 11.177 38.2737 11.046 38.2785 10.9124V4.00801C38.2786 3.87994 38.2528 3.75317 38.2026 3.63537C38.1523 3.51756 38.0787 3.41117 37.9862 3.32261C37.8969 3.22083 37.7868 3.13938 37.6634 3.08374C37.5399 3.0281 37.406 2.99957 37.2706 3.00006H30.3157C30.1859 2.99856 30.0572 3.02373 29.9376 3.07401C29.8179 3.12429 29.7099 3.19861 29.6202 3.29237C29.4388 3.47511 29.3342 3.72035 29.3279 3.97777C29.3316 4.2387 29.4364 4.48801 29.6202 4.67326C29.7054 4.77619 29.8114 4.85994 29.9312 4.919C30.0511 4.97807 30.1821 5.01111 30.3157 5.01596H34.9724L34.3172 5.70136C30.5601 9.59387 26.2584 12.9211 21.5464 15.5792C17.2558 17.9896 12.6674 19.8263 7.89868 21.0423C7.66135 21.1013 7.45358 21.2446 7.31407 21.4455Z" fill="url(#paint2_linear_40_2113)"/>
<path d="M19.2281 40.9997H24.7719C25.0868 41.005 25.3996 40.9477 25.6923 40.8312C25.9849 40.7147 26.2514 40.5412 26.4765 40.3209C26.7015 40.1005 26.8806 39.8377 27.0032 39.5476C27.1259 39.2575 27.1897 38.9459 27.191 38.631V27.5436C27.1897 27.2286 27.1259 26.917 27.0032 26.627C26.8806 26.3369 26.7015 26.074 26.4765 25.8537C26.2514 25.6333 25.9849 25.4598 25.6923 25.3433C25.3996 25.2268 25.0868 25.1695 24.7719 25.1749H19.2281C18.6007 25.1775 17.9998 25.428 17.5561 25.8716C17.1125 26.3152 16.8621 26.9162 16.8594 27.5436V38.631C16.8621 39.2584 17.1125 39.8593 17.5561 40.303C17.9998 40.7466 18.6007 40.997 19.2281 40.9997ZM18.8249 27.1908H25.1751V39.0846H18.8249V27.1908Z" fill="url(#paint3_linear_40_2113)"/>
<defs>
<linearGradient id="paint0_linear_40_2113" x1="3" y1="22" x2="41" y2="22" gradientUnits="userSpaceOnUse">
<stop stop-color="#9A4DFE"/>
<stop offset="1" stop-color="#E87CFF"/>
</linearGradient>
<linearGradient id="paint1_linear_40_2113" x1="3" y1="22" x2="41" y2="22" gradientUnits="userSpaceOnUse">
<stop stop-color="#9A4DFE"/>
<stop offset="1" stop-color="#E87CFF"/>
</linearGradient>
<linearGradient id="paint2_linear_40_2113" x1="3" y1="22" x2="41" y2="22" gradientUnits="userSpaceOnUse">
<stop stop-color="#9A4DFE"/>
<stop offset="1" stop-color="#E87CFF"/>
</linearGradient>
<linearGradient id="paint3_linear_40_2113" x1="3" y1="22" x2="41" y2="22" gradientUnits="userSpaceOnUse">
<stop stop-color="#9A4DFE"/>
<stop offset="1" stop-color="#E87CFF"/>
</linearGradient>
</defs>
</svg>
