<svg width="44" height="44" viewBox="0 0 44 44" fill="none" xmlns="http://www.w3.org/2000/svg">
<path d="M27.2536 2.39186C26.7281 1.86938 25.8794 1.86938 25.3542 2.39186L24.399 3.34924C23.8747 3.87417 23.8747 4.72442 24.399 5.24935L24.8836 5.7346L21.5282 9.09016C19.3349 11.2857 18.3587 14.4181 18.9169 17.4713V17.4954C19.0475 18.2013 19.2583 18.8904 19.5449 19.5487C15.9826 18.0023 11.8374 18.7869 9.08685 21.5287L5.73237 24.8843L5.24897 24.4003C4.72407 23.8763 3.87385 23.8763 3.34895 24.4003L2.39162 25.3561C1.86946 25.8817 1.86946 26.7298 2.39162 27.255L16.7443 41.6084C17.2698 42.1305 18.1182 42.1305 18.6437 41.6084L19.5989 40.651C19.851 40.3989 19.9926 40.0571 19.9926 39.7009C19.9926 39.3445 19.851 39.0027 19.5989 38.7509L19.1143 38.2656L22.4697 34.9101C25.2123 32.16 25.9972 28.0137 24.4497 24.4515C28.0114 26.0031 32.1596 25.2179 34.9074 22.4715L38.2656 19.1159L38.7508 19.6006C39.2757 20.1252 40.1262 20.1252 40.6508 19.6006L41.6082 18.6441C42.1306 18.1186 42.1306 17.2698 41.6082 16.7446L27.2536 2.39186ZM22.4703 10.0329L25.8257 6.67733L37.2808 18.1332C30.2697 19.5581 22.4902 17.5714 20.1791 16.8972C19.8232 14.3763 20.6716 11.8347 22.4703 10.0329ZM17.6864 40.6675L3.33217 26.3129L4.30354 25.3424L18.6568 39.7083L17.6864 40.6675ZM21.5276 33.9673L18.1722 37.3229L12.1722 31.3226C14.4863 32.1353 16.9198 32.5562 19.3722 32.5671C20.5297 32.5668 21.6851 32.4652 22.8249 32.2638C22.4697 32.8867 22.0336 33.4595 21.5276 33.9673ZM23.4923 30.7586C16.021 32.4673 9.7384 28.8005 9.67493 28.7617C9.64319 28.7474 9.61023 28.7358 9.57636 28.7269L6.67689 25.827L10.0323 22.4715C12.6916 19.8072 16.8331 19.3195 20.0387 21.2931C23.2439 23.2665 24.6734 27.1842 23.4923 30.7586ZM33.9657 21.5287C31.9811 23.5222 29.1057 24.3453 26.3671 23.7035C23.6285 23.0614 21.4181 21.0462 20.5263 18.3786C24.2461 19.3869 28.0785 19.9207 31.9323 19.9674C33.2155 19.9674 34.4979 19.8862 35.7708 19.7239L33.9657 21.5287ZM39.6917 18.6578L38.7322 17.702L26.2969 5.26613L25.3408 4.30662L26.3116 3.33276L40.6655 17.702L39.6917 18.6578Z" fill="url(#paint0_linear_40_2138)"/>
<path d="M11.3557 9.37025C8.83677 11.4306 6.97794 14.1852 6.00962 17.2924C5.67515 18.3697 5.44932 19.4778 5.3358 20.6C5.31718 20.7764 5.36967 20.9531 5.48167 21.0907C5.59367 21.2284 5.75572 21.3157 5.93241 21.3334H5.99894C6.34287 21.3352 6.63126 21.0752 6.66575 20.7334C6.77012 19.7003 6.97794 18.68 7.28648 17.6885C8.77421 12.9016 12.5153 9.14899 17.2977 7.64746L15.8183 9.98093C15.684 10.1821 15.669 10.4405 15.7795 10.6557C15.8903 10.8712 16.1088 11.0097 16.3508 11.0177C16.5928 11.0256 16.8198 10.9017 16.9444 10.6942L19.3244 6.94125C19.3305 6.93209 19.3305 6.92141 19.3357 6.91134C19.3665 6.85671 19.3891 6.79751 19.4025 6.73616C19.4086 6.71846 19.4141 6.70076 19.4184 6.68276C19.4184 6.67818 19.4218 6.6739 19.4224 6.66933C19.4312 6.59547 19.4276 6.5207 19.4117 6.44806C19.4083 6.43128 19.3992 6.41663 19.3943 6.40015C19.3778 6.34155 19.3534 6.2857 19.3217 6.23413C19.307 6.21185 19.2905 6.19079 19.2731 6.17065C19.2384 6.12792 19.1984 6.08977 19.1544 6.05681C19.1404 6.04674 19.1325 6.03148 19.1178 6.02141C19.1032 6.01134 19.0958 6.0147 19.0858 6.0092C19.0742 6.00066 19.0623 5.99242 19.0498 5.98479L15.0703 4.06606C14.8548 3.95253 14.5942 3.96566 14.3913 4.10024C14.1883 4.23514 14.0748 4.46983 14.0955 4.71276C14.1163 4.95569 14.268 5.1678 14.4911 5.26607L16.8305 6.39344C14.8344 7.03189 12.9768 8.04207 11.3557 9.37025Z" fill="url(#paint1_linear_40_2138)"/>
<path d="M38.0658 22.6701C37.699 22.6338 37.3719 22.8999 37.3325 23.2661C37.2281 24.2992 37.02 25.3194 36.7118 26.311C35.2244 31.0982 31.4829 34.8508 26.7005 36.3526L28.1797 34.0192C28.3143 33.818 28.3289 33.5595 28.2184 33.3444C28.108 33.1289 27.8895 32.9904 27.6475 32.9824C27.4055 32.9745 27.1781 33.0984 27.0536 33.3059L24.6738 37.0588C24.6677 37.068 24.6677 37.0793 24.6616 37.0887C24.6311 37.1437 24.6088 37.2026 24.5951 37.2639C24.5887 37.2816 24.5835 37.2993 24.5789 37.3173C24.5789 37.3219 24.5789 37.3262 24.575 37.3308C24.5661 37.4046 24.5698 37.4794 24.5856 37.552C24.5856 37.5688 24.5985 37.5835 24.603 37.5993C24.6195 37.6579 24.6439 37.7141 24.6757 37.766C24.6906 37.7882 24.7068 37.8093 24.7245 37.8294C24.759 37.8722 24.799 37.9103 24.8432 37.9433C24.8569 37.9533 24.8652 37.9686 24.8798 37.9787C24.8945 37.9888 24.907 37.9894 24.9204 37.9967C24.9338 38.004 24.9372 38.0107 24.9476 38.0153L28.9277 39.9334C29.0174 39.9777 29.1163 40.0006 29.2164 40.0003C29.527 40.0003 29.7968 39.7854 29.8661 39.4827C29.9357 39.1796 29.7867 38.8689 29.5072 38.7334L27.1677 37.606C29.1639 36.9673 31.0212 35.9574 32.6423 34.6292C35.1615 32.5689 37.0203 29.814 37.9883 26.7068C38.324 25.6301 38.5508 24.5223 38.6658 23.4001C38.6832 23.2237 38.6301 23.0473 38.5175 22.9103C38.4049 22.7735 38.2422 22.6869 38.0658 22.6701Z" fill="url(#paint2_linear_40_2138)"/>
<defs>
<linearGradient id="paint0_linear_40_2138" x1="2" y1="22" x2="42" y2="22" gradientUnits="userSpaceOnUse">
<stop stop-color="#9A4DFE"/>
<stop offset="1" stop-color="#E87CFF"/>
</linearGradient>
<linearGradient id="paint1_linear_40_2138" x1="2" y1="22" x2="42" y2="22" gradientUnits="userSpaceOnUse">
<stop stop-color="#9A4DFE"/>
<stop offset="1" stop-color="#E87CFF"/>
</linearGradient>
<linearGradient id="paint2_linear_40_2138" x1="2" y1="22" x2="42" y2="22" gradientUnits="userSpaceOnUse">
<stop stop-color="#9A4DFE"/>
<stop offset="1" stop-color="#E87CFF"/>
</linearGradient>
</defs>
</svg>
