<svg width="44" height="44" viewBox="0 0 44 44" fill="none" xmlns="http://www.w3.org/2000/svg">
<path d="M36.135 7.86504C34.2792 6.00663 32.0754 4.53211 29.6496 3.52576C27.2237 2.51941 24.6233 2.00094 21.997 2C19.3707 1.99906 16.77 2.51565 14.3434 3.52026C11.9168 4.52487 9.71198 5.99781 7.85489 7.85489C5.99781 9.71198 4.52487 11.9168 3.52026 14.3434C2.51565 16.77 1.99906 19.3707 2 21.997C2.00094 24.6233 2.51941 27.2237 3.52576 29.6496C4.53211 32.0754 6.00663 34.2792 7.86504 36.135C9.72079 37.9934 11.9246 39.4679 14.3504 40.4742C16.7763 41.4806 19.3767 41.9991 22.003 42C24.6293 42.0009 27.23 41.4843 29.6566 40.4797C32.0832 39.4751 34.288 38.0022 36.1451 36.1451C38.0022 34.288 39.4751 32.0832 40.4797 29.6566C41.4843 27.23 42.0009 24.6293 42 22.003C41.9991 19.3767 41.4806 16.7763 40.4742 14.3504C39.4679 11.9246 37.9934 9.72079 36.135 7.86504ZM10.2801 8.09843C11.9257 6.69929 13.8045 5.60021 15.8305 4.85134L16.8453 4.49619L16.2161 5.32826C15.5385 6.19173 14.9471 7.11956 14.4505 8.09843C14.1157 8.77829 13.791 9.51903 13.4967 10.3004L13.3749 10.6352L13.0705 10.4526C12.0802 9.9017 11.1456 9.25602 10.2801 8.52461L10.0061 8.29122L10.2801 8.09843ZM3.81634 20.7925C4.0979 16.6824 5.76073 12.7881 8.53475 9.74226L8.72755 9.51903L8.95079 9.71182C10.0766 10.6814 11.3049 11.5253 12.6139 12.2283L12.827 12.3399L12.7661 12.5733C12.048 15.2671 11.6495 18.036 11.5789 20.8229V21.1172H3.79604L3.81634 20.7925ZM8.72755 34.481L8.53475 34.2577C5.76073 31.2119 4.0979 27.3176 3.81634 23.2075V22.8828H11.5687V23.1771C11.6399 25.968 12.0418 28.7406 12.7661 31.4368L12.827 31.6804L12.6139 31.792C11.3049 32.495 10.0766 33.3388 8.95079 34.3085L8.72755 34.481ZM15.8305 39.1487C13.8058 38.4154 11.9267 37.3298 10.2801 35.9422L10.0061 35.7088L10.2801 35.4957C11.1482 34.7676 12.0824 34.1221 13.0705 33.5677L13.3749 33.3851L13.4967 33.7199C13.791 34.4911 14.1055 35.2319 14.4505 35.9219C14.9468 36.8945 15.5383 37.8156 16.2161 38.6717L16.8656 39.5038L15.8305 39.1487ZM21.1172 40.1634L20.7113 40.0315C18.9863 39.4632 17.3222 37.7179 16.0335 35.1405C15.676 34.414 15.3576 33.6688 15.0797 32.9082L14.9883 32.6342L15.2623 32.5226C17.0298 31.8224 18.8955 31.4013 20.7925 31.2745H21.1172V40.1634ZM21.1172 29.4886H20.8229C18.7379 29.6068 16.684 30.0484 14.7347 30.7976L14.4201 30.9295L14.3288 30.5946C13.7205 28.1804 13.3802 25.7065 13.3141 23.2177V22.9031H21.0868L21.1172 29.4886ZM21.1172 21.1476H13.3445V20.8331C13.4107 18.3443 13.751 15.8704 14.3592 13.4561L14.4505 13.1213L14.7651 13.243C16.7115 14.002 18.767 14.4439 20.8534 14.552H21.1375L21.1172 21.1476ZM21.1172 12.8067H20.7925C18.8953 12.6883 17.0289 12.2705 15.2623 11.5687L14.9883 11.4571L15.0797 11.1426C15.3538 10.3805 15.6723 9.63511 16.0335 8.9102C17.3222 6.31253 18.9863 4.56722 20.7113 4.03957L21.1172 3.90766V12.8067ZM23.2075 40.204H22.8828V31.2034H25.9878L26.0589 31.4165C26.3161 32.1429 26.8218 32.755 27.4867 33.1447C28.1515 33.5343 28.9327 33.6764 29.6922 33.5459C30.4516 33.4154 31.1405 33.0206 31.6372 32.4314C32.1338 31.8421 32.4061 31.0963 32.4061 30.3257C32.4061 29.5551 32.1338 28.8093 31.6372 28.2201C31.1405 27.6308 30.4516 27.2361 29.6922 27.1056C28.9327 26.975 28.1515 27.1171 27.4867 27.5068C26.8218 27.8964 26.3161 28.5085 26.0589 29.2349L25.9878 29.4378H22.8828V22.8828H30.828L30.899 23.0857C31.1553 23.813 31.6604 24.4262 32.3252 24.8169C32.9899 25.2076 33.7715 25.3506 34.5315 25.2206C35.2915 25.0907 35.9811 24.6961 36.4783 24.1067C36.9754 23.5173 37.2481 22.7711 37.2481 22C37.2481 21.2289 36.9754 20.4827 36.4783 19.8933C35.9811 19.3039 35.2915 18.9093 34.5315 18.7794C33.7715 18.6494 32.9899 18.7924 32.3252 19.1831C31.6604 19.5738 31.1553 20.187 30.899 20.9143L30.828 21.1172H22.8828V14.5622H25.9878L26.0589 14.7651C26.3161 15.4915 26.8218 16.1036 27.4867 16.4932C28.1515 16.8829 28.9327 17.025 29.6922 16.8944C30.4516 16.7639 31.1405 16.3692 31.6372 15.7799C32.1338 15.1907 32.4061 14.4449 32.4061 13.6743C32.4061 12.9037 32.1338 12.1579 31.6372 11.5686C31.1405 10.9794 30.4516 10.5846 29.6922 10.4541C28.9327 10.3236 28.1515 10.4657 27.4867 10.8553C26.8218 11.245 26.3161 11.8571 26.0589 12.5835L25.9878 12.7864H22.8828V3.79604H23.2075C27.7233 4.23646 31.9135 6.34187 34.9621 9.70226C38.0107 13.0627 39.6994 17.4374 39.6994 21.9746C39.6994 26.5118 38.0107 30.8866 34.9621 34.247C31.9135 37.6074 27.7233 39.7128 23.2075 40.1532V40.204ZM27.6418 30.3511C27.6438 30.0565 27.733 29.7691 27.8981 29.5252C28.0632 29.2812 28.2969 29.0916 28.5696 28.9803C28.8423 28.8689 29.1419 28.8408 29.4306 28.8995C29.7193 28.9582 29.9841 29.1011 30.1917 29.3101C30.3993 29.5191 30.5404 29.7849 30.5971 30.0739C30.6538 30.363 30.6237 30.6624 30.5105 30.9344C30.3973 31.2063 30.2061 31.4387 29.9611 31.6022C29.716 31.7656 29.428 31.8529 29.1334 31.8529C28.9341 31.8529 28.7367 31.8131 28.5531 31.7356C28.3694 31.6581 28.2031 31.5446 28.0641 31.4017C27.925 31.2589 27.816 31.0896 27.7435 30.9039C27.671 30.7183 27.6364 30.5199 27.6418 30.3206V30.3511ZM32.4515 22C32.4495 21.7026 32.5359 21.4112 32.6997 21.1629C32.8635 20.9146 33.0973 20.7206 33.3716 20.6053C33.6458 20.4901 33.9481 20.4589 34.24 20.5157C34.532 20.5725 34.8006 20.7147 35.0116 20.9243C35.2226 21.134 35.3667 21.4015 35.4255 21.6931C35.4842 21.9847 35.4551 22.2872 35.3417 22.5622C35.2284 22.8372 35.0359 23.0723 34.7887 23.2378C34.5415 23.4033 34.2508 23.4916 33.9533 23.4916C33.7566 23.493 33.5615 23.4554 33.3794 23.381C33.1972 23.3066 33.0316 23.197 32.892 23.0583C32.7524 22.9197 32.6416 22.7548 32.5661 22.5732C32.4905 22.3915 32.4515 22.1967 32.4515 22ZM27.6215 13.6793C27.6275 13.3866 27.7196 13.102 27.8862 12.8612C28.0528 12.6204 28.2866 12.434 28.5585 12.3251C28.8303 12.2163 29.1282 12.1899 29.415 12.2492C29.7018 12.3086 29.9647 12.451 30.1711 12.6587C30.3775 12.8665 30.5181 13.1304 30.5755 13.4175C30.6329 13.7047 30.6045 14.0024 30.4939 14.2735C30.3832 14.5447 30.1952 14.7772 29.9533 14.9422C29.7114 15.1072 29.4262 15.1974 29.1334 15.2014C28.935 15.2015 28.7385 15.1619 28.5555 15.085C28.3725 15.0082 28.2067 14.8956 28.0678 14.7538C27.9289 14.6121 27.8196 14.444 27.7465 14.2595C27.6733 14.075 27.6378 13.8778 27.6418 13.6793H27.6215Z" fill="url(#paint0_linear_40_2145)"/>
<defs>
<linearGradient id="paint0_linear_40_2145" x1="2" y1="22" x2="42" y2="22" gradientUnits="userSpaceOnUse">
<stop stop-color="#9A4DFE"/>
<stop offset="1" stop-color="#E87CFF"/>
</linearGradient>
</defs>
</svg>
