<svg width="370" height="310" viewBox="0 0 370 310" fill="none" xmlns="http://www.w3.org/2000/svg">
<foreignObject x="-120" y="-120" width="610" height="550"><div xmlns="http://www.w3.org/1999/xhtml" style="backdrop-filter:blur(60px);clip-path:url(#bgblur_0_35_7211_clip_path);height:100%;width:100%"></div></foreignObject><g data-figma-bg-blur-radius="120">
<path d="M0 24C0 10.7452 10.7452 0 24 0H346C359.255 0 370 10.7452 370 24V286C370 299.255 359.255 310 346 310H24C10.7452 310 0 299.255 0 286V24Z" fill="#151019" fill-opacity="0.7"/>
<path d="M24 0.5H346C358.979 0.5 369.5 11.0213 369.5 24V286C369.5 298.979 358.979 309.5 346 309.5H24C11.0213 309.5 0.5 298.979 0.5 286V24C0.5 11.0213 11.0213 0.5 24 0.5Z" stroke="white" stroke-opacity="0.07"/>
<mask id="mask0_35_7211" style="mask-type:alpha" maskUnits="userSpaceOnUse" x="0" y="0" width="370" height="310">
<rect width="370" height="310" fill="url(#paint0_linear_35_7211)"/>
</mask>
<g mask="url(#mask0_35_7211)">
<g clip-path="url(#clip1_35_7211)">
<mask id="mask1_35_7211" style="mask-type:alpha" maskUnits="userSpaceOnUse" x="14" y="32" width="342" height="342">
<circle cx="185" cy="203.225" r="170.769" fill="url(#paint1_radial_35_7211)"/>
</mask>
<g mask="url(#mask1_35_7211)">
<path opacity="0.1" d="M21.7647 171.321C10.8824 171.321 10.8824 107.11 0 107.11V299.225H370V211.75H348.235C337.353 211.75 337.353 145.161 326.471 145.161C315.588 145.161 315.588 209.372 304.706 209.372C293.824 209.372 293.824 221.263 282.941 221.263C272.059 221.263 272.059 204.616 261.176 204.616C250.294 204.616 250.294 199.859 239.412 199.859C228.529 199.859 228.529 159.43 217.647 159.43C206.765 159.43 206.765 164.186 195.882 164.186C185 164.186 185 168.943 174.118 168.943C163.235 168.943 163.235 192.725 152.353 192.725C141.471 192.725 141.471 180.834 130.588 180.834C119.706 180.834 119.706 202.237 108.824 202.237C97.9412 202.237 97.9412 157.052 87.0588 157.052C76.1765 157.052 76.1765 233.154 65.2941 233.154C54.4118 233.154 54.4118 216.507 43.5294 216.507C32.6471 216.507 32.6471 171.321 21.7647 171.321Z" fill="url(#paint2_linear_35_7211)"/>
<path d="M0 107.11C10.8824 107.11 10.8824 171.321 21.7647 171.321C32.6471 171.321 32.6471 216.507 43.5294 216.507C54.4118 216.507 54.4118 233.154 65.2941 233.154C76.1765 233.154 76.1765 157.052 87.0588 157.052C97.9412 157.052 97.9412 202.237 108.824 202.237C119.706 202.237 119.706 180.834 130.588 180.834C141.471 180.834 141.471 192.725 152.353 192.725C163.235 192.725 163.235 168.943 174.118 168.943C185 168.943 185 164.186 195.882 164.186C206.765 164.186 206.765 159.43 217.647 159.43C228.529 159.43 228.529 199.859 239.412 199.859C250.294 199.859 250.294 204.616 261.176 204.616C272.059 204.616 272.059 221.263 282.941 221.263C293.824 221.263 293.824 209.372 304.706 209.372C315.588 209.372 315.588 145.161 326.471 145.161C337.353 145.161 337.353 211.75 348.235 211.75C359.118 211.75 359.118 211.75 370 211.75" stroke="#E56FFE" stroke-width="1.5"/>
<path d="M0 180.834C10.8824 180.834 10.8824 164.186 21.7647 164.186C32.6471 164.186 32.6471 145.161 43.5294 145.161C54.4118 145.161 54.4118 211.75 65.2941 211.75C76.1765 211.75 76.1765 216.507 87.0588 216.507C97.9412 216.507 97.9412 221.263 108.824 221.263C119.706 221.263 119.706 171.321 130.588 171.321C141.471 171.321 141.471 157.052 152.353 157.052C163.235 157.052 163.235 204.616 174.118 204.616C185 204.616 185 159.43 195.882 159.43C206.765 159.43 206.765 168.943 217.647 168.943C228.529 168.943 228.529 233.154 239.412 233.154C250.294 233.154 250.294 107.11 261.176 107.11C272.059 107.11 272.059 211.75 282.941 211.75C293.824 211.75 293.824 192.725 304.706 192.725C315.588 192.725 315.588 202.237 326.471 202.237C337.353 202.237 337.353 199.859 348.235 199.859C359.118 199.859 359.118 209.372 370 209.372M370 209.372V209.372Z" stroke="url(#paint3_linear_35_7211)" stroke-opacity="0.15" stroke-width="1.5"/>
</g>
<foreignObject x="71.4615" y="136.308" width="44.7253" height="73.1867"><div xmlns="http://www.w3.org/1999/xhtml" style="backdrop-filter:blur(6.1px);clip-path:url(#bgblur_2_35_7211_clip_path);height:100%;width:100%"></div></foreignObject><g filter="url(#filter1_di_35_7211)" data-figma-bg-blur-radius="12.1978">
<circle cx="93.8242" cy="158.67" r="10.1648" fill="#F8F8F8" fill-opacity="0.01" shape-rendering="crispEdges"/>
<circle cx="93.8242" cy="158.67" r="10.1648" fill="#121212" fill-opacity="0.3" shape-rendering="crispEdges"/>
<circle cx="93.8242" cy="158.67" r="9.65659" stroke="url(#paint4_linear_35_7211)" stroke-opacity="0.25" stroke-width="1.01648" shape-rendering="crispEdges"/>
</g>
<circle cx="93.8242" cy="158.67" r="5.08242" fill="#E67CFD"/>
<path d="M97.9752 160.889C97.7843 160.82 97.5907 160.751 97.4272 160.708C97.2721 160.668 96.9726 160.601 96.6515 160.712C96.2834 160.84 95.9941 161.129 95.8667 161.497C95.7555 161.818 95.8223 162.118 95.8626 162.273C95.9051 162.436 95.9747 162.63 96.0432 162.821L100.896 176.34C100.981 176.577 101.063 176.805 101.144 176.98C101.212 177.128 101.367 177.452 101.703 177.636C102.072 177.836 102.515 177.842 102.888 177.651C103.23 177.477 103.393 177.157 103.465 177.011C103.55 176.837 103.638 176.612 103.729 176.377L105.914 170.76L111.531 168.575C111.766 168.484 111.991 168.396 112.165 168.311C112.311 168.239 112.631 168.076 112.805 167.734C112.996 167.361 112.99 166.917 112.79 166.549C112.607 166.212 112.282 166.057 112.134 165.989C111.959 165.909 111.731 165.827 111.494 165.742L97.9752 160.889Z" fill="#121212" stroke="#F8F8F8" stroke-width="1.5" stroke-linecap="round" stroke-linejoin="round"/>
<foreignObject x="97.8901" y="162.736" width="84.3681" height="75.2199"><div xmlns="http://www.w3.org/1999/xhtml" style="backdrop-filter:blur(6.1px);clip-path:url(#bgblur_3_35_7211_clip_path);height:100%;width:100%"></div></foreignObject><g filter="url(#filter2_di_35_7211)" data-figma-bg-blur-radius="12.1978">
<rect x="110.088" y="174.934" width="59.9725" height="22.3626" rx="8.13187" fill="#F8F8F8" fill-opacity="0.05" style="mix-blend-mode:luminosity" shape-rendering="crispEdges"/>
<rect x="110.838" y="175.684" width="58.4725" height="20.8626" rx="7.38187" stroke="url(#paint5_linear_35_7211)" stroke-opacity="0.25" stroke-width="1.5" shape-rendering="crispEdges"/>
<path d="M124.305 192.092V181.003H125.015V192.092H124.305ZM126.353 184.55C126.313 184.172 126.143 183.878 125.842 183.667C125.545 183.456 125.158 183.351 124.681 183.351C124.346 183.351 124.059 183.401 123.819 183.502C123.58 183.603 123.396 183.74 123.269 183.914C123.142 184.087 123.077 184.285 123.074 184.507C123.074 184.692 123.116 184.852 123.2 184.988C123.287 185.124 123.404 185.239 123.551 185.334C123.698 185.427 123.861 185.505 124.04 185.568C124.219 185.632 124.4 185.685 124.582 185.729L125.413 185.937C125.748 186.015 126.07 186.12 126.379 186.253C126.691 186.386 126.97 186.553 127.215 186.755C127.464 186.957 127.66 187.201 127.804 187.487C127.949 187.773 128.021 188.108 128.021 188.492C128.021 189.012 127.888 189.47 127.623 189.865C127.357 190.258 126.973 190.566 126.47 190.788C125.971 191.007 125.366 191.117 124.655 191.117C123.965 191.117 123.366 191.01 122.858 190.797C122.352 190.583 121.957 190.271 121.671 189.861C121.388 189.451 121.235 188.951 121.212 188.362H122.793C122.816 188.671 122.911 188.928 123.079 189.133C123.246 189.338 123.464 189.491 123.733 189.592C124.004 189.694 124.307 189.744 124.642 189.744C124.992 189.744 125.298 189.692 125.561 189.588C125.826 189.481 126.034 189.334 126.184 189.146C126.335 188.956 126.411 188.733 126.414 188.479C126.411 188.248 126.343 188.058 126.21 187.907C126.078 187.754 125.891 187.627 125.652 187.526C125.415 187.422 125.138 187.33 124.82 187.249L123.811 186.989C123.08 186.801 122.503 186.517 122.078 186.136C121.657 185.752 121.446 185.242 121.446 184.607C121.446 184.084 121.587 183.626 121.87 183.234C122.156 182.841 122.544 182.536 123.035 182.32C123.526 182.1 124.082 181.99 124.703 181.99C125.333 181.99 125.884 182.1 126.358 182.32C126.834 182.536 127.208 182.838 127.48 183.225C127.751 183.609 127.891 184.051 127.9 184.55H126.353ZM132.975 182.112V190.983H131.368V183.675H131.316L129.242 185.001V183.528L131.446 182.112H132.975ZM136.598 189.77L136.541 190.247C136.501 190.61 136.429 190.98 136.325 191.355C136.224 191.734 136.117 192.082 136.004 192.399C135.892 192.717 135.801 192.967 135.731 193.149H134.674C134.715 192.973 134.77 192.733 134.839 192.43C134.911 192.126 134.981 191.786 135.047 191.407C135.113 191.029 135.158 190.645 135.181 190.255L135.212 189.77H136.598ZM141.27 191.152C140.557 191.152 139.945 190.971 139.434 190.61C138.926 190.247 138.534 189.722 138.26 189.038C137.988 188.351 137.853 187.523 137.853 186.556C137.856 185.589 137.993 184.766 138.264 184.087C138.539 183.405 138.93 182.886 139.438 182.528C139.949 182.17 140.56 181.99 141.27 181.99C141.981 181.99 142.592 182.17 143.103 182.528C143.614 182.886 144.005 183.405 144.277 184.087C144.551 184.768 144.688 185.592 144.688 186.556C144.688 187.526 144.551 188.355 144.277 189.042C144.005 189.727 143.614 190.249 143.103 190.61C142.594 190.971 141.984 191.152 141.27 191.152ZM141.27 189.796C141.825 189.796 142.262 189.523 142.583 188.977C142.906 188.429 143.068 187.622 143.068 186.556C143.068 185.851 142.994 185.259 142.847 184.78C142.7 184.301 142.492 183.94 142.223 183.697C141.955 183.452 141.637 183.329 141.27 183.329C140.719 183.329 140.283 183.603 139.962 184.152C139.642 184.698 139.48 185.499 139.477 186.556C139.474 187.264 139.545 187.858 139.689 188.341C139.837 188.823 140.045 189.187 140.313 189.432C140.582 189.675 140.901 189.796 141.27 189.796ZM146.127 190.983V189.822L149.207 186.803C149.502 186.505 149.747 186.241 149.943 186.01C150.14 185.779 150.287 185.555 150.385 185.339C150.483 185.122 150.532 184.891 150.532 184.646C150.532 184.366 150.469 184.126 150.342 183.927C150.215 183.725 150.04 183.569 149.818 183.459C149.595 183.349 149.343 183.294 149.06 183.294C148.768 183.294 148.512 183.355 148.293 183.476C148.074 183.595 147.903 183.764 147.782 183.983C147.663 184.203 147.604 184.464 147.604 184.767H146.075C146.075 184.204 146.204 183.714 146.461 183.299C146.718 182.883 147.071 182.561 147.522 182.333C147.975 182.105 148.495 181.99 149.081 181.99C149.676 181.99 150.199 182.102 150.649 182.324C151.1 182.546 151.449 182.851 151.698 183.238C151.949 183.625 152.074 184.067 152.074 184.563C152.074 184.896 152.011 185.222 151.884 185.542C151.757 185.863 151.533 186.218 151.212 186.608C150.895 186.998 150.449 187.47 149.874 188.024L148.345 189.579V189.64H152.209V190.983H146.127ZM153.352 189.337V188.059L157.116 182.112H158.182V183.931H157.532L154.998 187.946V188.016H160.253V189.337H153.352ZM157.584 190.983V188.947L157.602 188.375V182.112H159.118V190.983H157.584Z" fill="white"/>
</g>
<circle cx="29.3956" cy="35.4946" r="5" fill="#F8F8F8" fill-opacity="0.05"/>
<circle cx="29.3956" cy="35.4946" r="4.49176" stroke="url(#paint6_linear_35_7211)" stroke-opacity="0.25" stroke-width="1.01648"/>
<path d="M47.3153 43.874V29.0888H48.2625V43.874H47.3153ZM50.2782 33.6745C50.2165 33.1278 49.9624 32.7043 49.5158 32.4039C49.0692 32.0998 48.507 31.9477 47.8294 31.9477C47.3442 31.9477 46.9245 32.0247 46.5703 32.1787C46.2161 32.3289 45.9408 32.5368 45.7444 32.8024C45.5519 33.0643 45.4556 33.3627 45.4556 33.6976C45.4556 33.9787 45.5211 34.2213 45.652 34.4254C45.7868 34.6294 45.9619 34.8008 46.1776 34.9394C46.397 35.0741 46.6319 35.1877 46.8822 35.2801C47.1324 35.3687 47.3731 35.4418 47.6041 35.4996L48.7592 35.7999C49.1365 35.8923 49.5235 36.0175 49.9201 36.1753C50.3167 36.3332 50.6844 36.5411 51.0232 36.7991C51.362 37.057 51.6354 37.3766 51.8433 37.7578C52.0551 38.139 52.161 38.5952 52.161 39.1266C52.161 39.7965 51.9877 40.3914 51.6412 40.9112C51.2985 41.431 50.7999 41.8411 50.1453 42.1414C49.4946 42.4417 48.7072 42.5919 47.7831 42.5919C46.8976 42.5919 46.1314 42.4513 45.4845 42.1703C44.8377 41.8892 44.3313 41.4907 43.9656 40.9747C43.5998 40.4549 43.3976 39.8389 43.3591 39.1266H45.1495C45.1842 39.554 45.3228 39.9101 45.5654 40.1951C45.8118 40.4761 46.1256 40.686 46.5068 40.8246C46.8918 40.9593 47.3134 41.0267 47.7716 41.0267C48.276 41.0267 48.7246 40.9478 49.1173 40.7899C49.5139 40.6282 49.8257 40.4049 50.0529 40.12C50.2801 39.8312 50.3937 39.4943 50.3937 39.1093C50.3937 38.7589 50.2936 38.472 50.0933 38.2487C49.897 38.0254 49.6294 37.8406 49.2905 37.6943C48.9556 37.548 48.5763 37.419 48.1528 37.3073L46.7551 36.9261C45.8079 36.6682 45.0571 36.2889 44.5027 35.7884C43.9521 35.2878 43.6768 34.6256 43.6768 33.8016C43.6768 33.1201 43.8616 32.5252 44.2312 32.017C44.6009 31.5087 45.1014 31.1141 45.7329 30.833C46.3643 30.5481 47.0766 30.4056 47.8698 30.4056C48.6706 30.4056 49.3772 30.5462 49.9894 30.8272C50.6054 31.1083 51.0906 31.4953 51.4448 31.9881C51.799 32.4771 51.9838 33.0392 51.9992 33.6745H50.2782ZM53.8835 40.0853V38.6414L58.9948 30.5673H60.1326V32.6927H59.4106L55.7547 38.4797V38.5721H62.7604V40.0853H53.8835ZM59.4915 42.3955V39.6464L59.503 38.988V30.5673H61.1952V42.3955H59.4915ZM68.8911 42.5919C67.9785 42.588 67.1988 42.3474 66.552 41.8699C65.9051 41.3925 65.4104 40.6975 65.0677 39.785C64.725 38.8725 64.5537 37.7732 64.5537 36.4872C64.5537 35.205 64.725 34.1096 65.0677 33.201C65.4142 32.2923 65.9109 31.5992 66.5578 31.1218C67.2085 30.6443 67.9862 30.4056 68.8911 30.4056C69.7959 30.4056 70.5717 30.6463 71.2186 31.1276C71.8654 31.605 72.3602 32.2981 72.7029 33.2067C73.0494 34.1116 73.2227 35.205 73.2227 36.4872C73.2227 37.7771 73.0513 38.8782 72.7087 39.7908C72.366 40.6994 71.8712 41.3944 71.2244 41.8757C70.5775 42.3532 69.7997 42.5919 68.8911 42.5919ZM68.8911 41.0498C69.6919 41.0498 70.3176 40.659 70.7681 39.8774C71.2224 39.0958 71.4496 37.9657 71.4496 36.4872C71.4496 35.5054 71.3456 34.6756 71.1377 33.998C70.9337 33.3165 70.6391 32.8005 70.2541 32.4501C69.8729 32.0959 69.4186 31.9188 68.8911 31.9188C68.094 31.9188 67.4684 32.3115 67.014 33.097C66.5597 33.8825 66.3306 35.0125 66.3268 36.4872C66.3268 37.4729 66.4288 38.3065 66.6329 38.988C66.8408 39.6656 67.1353 40.1797 67.5165 40.53C67.8977 40.8766 68.3559 41.0498 68.8911 41.0498ZM79.2681 42.5572C78.4403 42.5572 77.7088 42.4148 77.0735 42.1298C76.442 41.8449 75.9473 41.4522 75.5892 40.9516C75.2311 40.4511 75.054 39.8813 75.0578 39.2421C75.054 38.7416 75.156 38.2814 75.3639 37.8618C75.5757 37.4382 75.8625 37.0859 76.2245 36.8048C76.5864 36.5199 76.9907 36.339 77.4373 36.262V36.1926C76.8482 36.0502 76.3766 35.7345 76.0223 35.2455C75.6681 34.7565 75.4929 34.1943 75.4968 33.559C75.4929 32.9545 75.6527 32.4155 75.9761 31.9419C76.3034 31.4645 76.752 31.0891 77.3218 30.8157C77.8917 30.5423 78.5404 30.4056 79.2681 30.4056C79.9882 30.4056 80.6312 30.5442 81.1972 30.8215C81.767 31.0948 82.2156 31.4702 82.5428 31.9477C82.8701 32.4213 83.0357 32.9584 83.0395 33.559C83.0357 34.1943 82.8547 34.7565 82.4966 35.2455C82.1386 35.7345 81.6727 36.0502 81.099 36.1926V36.262C81.5418 36.339 81.9403 36.5199 82.2945 36.8048C82.6526 37.0859 82.9375 37.4382 83.1493 37.8618C83.3649 38.2814 83.4746 38.7416 83.4785 39.2421C83.4746 39.8813 83.2937 40.4511 82.9356 40.9516C82.5775 41.4522 82.0808 41.8449 81.4455 42.1298C80.8141 42.4148 80.0883 42.5572 79.2681 42.5572ZM79.2681 41.096C79.7571 41.096 80.1807 41.0152 80.5388 40.8535C80.8968 40.6879 81.1741 40.4588 81.3704 40.1662C81.5668 39.8697 81.6669 39.5232 81.6707 39.1266C81.6669 38.7146 81.5591 38.3508 81.3473 38.035C81.1394 37.7193 80.8564 37.471 80.4983 37.29C80.1402 37.109 79.7302 37.0185 79.2681 37.0185C78.8023 37.0185 78.3884 37.109 78.0264 37.29C77.6645 37.471 77.3796 37.7193 77.1717 38.035C76.9637 38.3508 76.8617 38.7146 76.8656 39.1266C76.8617 39.5232 76.956 39.8697 77.1485 40.1662C77.3449 40.4588 77.6241 40.6879 77.986 40.8535C78.3479 41.0152 78.7753 41.096 79.2681 41.096ZM79.2681 35.592C79.6609 35.592 80.0093 35.5131 80.3135 35.3552C80.6177 35.1973 80.8564 34.9779 81.0297 34.6968C81.2068 34.4157 81.2973 34.0865 81.3011 33.7092C81.2973 33.3396 81.2087 33.0161 81.0354 32.7389C80.866 32.4617 80.6292 32.248 80.3251 32.0978C80.0209 31.9438 79.6686 31.8668 79.2681 31.8668C78.86 31.8668 78.5019 31.9438 78.1939 32.0978C77.8897 32.248 77.6529 32.4617 77.4835 32.7389C77.3141 33.0161 77.2313 33.3396 77.2352 33.7092C77.2313 34.0865 77.316 34.4157 77.4893 34.6968C77.6626 34.9779 77.9013 35.1973 78.2055 35.3552C78.5135 35.5131 78.8677 35.592 79.2681 35.592ZM86.359 42.5052C86.0433 42.5052 85.7718 42.3936 85.5446 42.1703C85.3175 41.9431 85.2039 41.6697 85.2039 41.3501C85.2039 41.0344 85.3175 40.7649 85.5446 40.5416C85.7718 40.3144 86.0433 40.2008 86.359 40.2008C86.6747 40.2008 86.9462 40.3144 87.1733 40.5416C87.4005 40.7649 87.5141 41.0344 87.5141 41.3501C87.5141 41.5619 87.4602 41.7564 87.3524 41.9335C87.2484 42.1067 87.1098 42.2453 86.9365 42.3493C86.7633 42.4533 86.5708 42.5052 86.359 42.5052ZM93.4931 42.5572C92.7 42.5572 91.9915 42.4205 91.3678 42.1472C90.7479 41.8738 90.257 41.4945 89.895 41.0094C89.5369 40.5204 89.3444 39.9544 89.3175 39.3114H91.131C91.1541 39.6618 91.2715 39.966 91.4833 40.2239C91.6989 40.4781 91.98 40.6744 92.3265 40.813C92.673 40.9516 93.0581 41.0209 93.4816 41.0209C93.9475 41.0209 94.3595 40.9401 94.7175 40.7784C95.0795 40.6167 95.3625 40.3914 95.5665 40.1026C95.7706 39.81 95.8726 39.4731 95.8726 39.0919C95.8726 38.6954 95.7706 38.3469 95.5665 38.0466C95.3663 37.7424 95.0718 37.5037 94.6829 37.3304C94.2979 37.1572 93.832 37.0705 93.2852 37.0705H92.2861V35.6151H93.2852C93.7242 35.6151 94.1092 35.5362 94.4403 35.3783C94.7753 35.2204 95.0371 35.001 95.2258 34.7199C95.4145 34.435 95.5088 34.1019 95.5088 33.7207C95.5088 33.355 95.426 33.0373 95.2604 32.7678C95.0987 32.4944 94.8677 32.2807 94.5674 32.1267C94.2709 31.9727 93.9205 31.8957 93.5162 31.8957C93.1312 31.8957 92.7712 31.9669 92.4362 32.1094C92.1051 32.248 91.8356 32.4482 91.6277 32.71C91.4197 32.968 91.3081 33.278 91.2927 33.6399H89.5658C89.5851 33.0007 89.7737 32.4386 90.1318 31.9534C90.4937 31.4683 90.9712 31.0891 91.5641 30.8157C92.1571 30.5423 92.8155 30.4056 93.5393 30.4056C94.2979 30.4056 94.9524 30.5539 95.503 30.8503C96.0575 31.143 96.4848 31.5338 96.7852 32.0228C97.0893 32.5117 97.2395 33.0469 97.2357 33.6283C97.2395 34.2906 97.0547 34.8527 96.6812 35.3148C96.3116 35.7768 95.8187 36.0868 95.2027 36.2446V36.337C95.9881 36.4564 96.5965 36.7683 97.0277 37.2727C97.4628 37.7771 97.6784 38.4027 97.6746 39.1497C97.6784 39.8004 97.4975 40.3837 97.1317 40.8997C96.7698 41.4156 96.275 41.8218 95.6474 42.1183C95.0198 42.4109 94.3017 42.5572 93.4931 42.5572ZM103.987 42.5572C103.46 42.5495 102.94 42.4533 102.428 42.2684C101.92 42.0836 101.458 41.7756 101.042 41.3444C100.626 40.9131 100.293 40.3337 100.043 39.606C99.7961 38.8782 99.6729 37.9696 99.6729 36.8799C99.6729 35.848 99.7749 34.9317 99.979 34.1308C100.187 33.3299 100.485 32.6542 100.874 32.1036C101.263 31.5492 101.733 31.1276 102.283 30.8388C102.834 30.55 103.452 30.4056 104.137 30.4056C104.842 30.4056 105.468 30.5442 106.014 30.8215C106.561 31.0987 107.004 31.4818 107.343 31.9708C107.685 32.4598 107.903 33.0161 107.995 33.6399H106.234C106.114 33.147 105.878 32.7447 105.523 32.4328C105.169 32.1209 104.707 31.965 104.137 31.965C103.271 31.965 102.595 32.3423 102.11 33.097C101.629 33.8517 101.386 34.9009 101.382 36.2446H101.469C101.673 35.9096 101.923 35.6247 102.22 35.3899C102.52 35.1511 102.855 34.9682 103.225 34.8412C103.598 34.7103 103.991 34.6448 104.403 34.6448C105.088 34.6448 105.708 34.8123 106.263 35.1473C106.821 35.4784 107.266 35.9366 107.597 36.5218C107.928 37.1071 108.094 37.7771 108.094 38.5317C108.094 39.2864 107.922 39.9698 107.58 40.582C107.241 41.1942 106.763 41.6793 106.147 42.0374C105.531 42.3917 104.811 42.5649 103.987 42.5572ZM103.981 41.0556C104.436 41.0556 104.842 40.9439 105.2 40.7206C105.558 40.4973 105.841 40.197 106.049 39.8196C106.257 39.4423 106.361 39.0207 106.361 38.5548C106.361 38.1005 106.259 37.6866 106.055 37.3131C105.855 36.9396 105.577 36.6431 105.223 36.4237C104.873 36.2042 104.472 36.0945 104.022 36.0945C103.679 36.0945 103.362 36.1599 103.069 36.2908C102.78 36.4217 102.526 36.6027 102.307 36.8337C102.087 37.0647 101.914 37.3304 101.787 37.6307C101.664 37.9272 101.602 38.241 101.602 38.5721C101.602 39.0149 101.704 39.425 101.908 39.8023C102.116 40.1797 102.399 40.4838 102.757 40.7148C103.119 40.942 103.527 41.0556 103.981 41.0556Z" fill="#F8F8F8" fill-opacity="0.95"/>
<path d="M43.8692 61.3955C43.7798 61.3955 43.7107 61.3711 43.6619 61.3223C43.6131 61.2654 43.5887 61.1963 43.5887 61.115V53.1376C43.5887 53.0563 43.6131 52.9912 43.6619 52.9424C43.7107 52.8855 43.7798 52.857 43.8692 52.857H44.5157C44.597 52.857 44.6621 52.8855 44.7109 52.9424C44.7597 52.9912 44.7841 53.0563 44.7841 53.1376V60.3343H48.8459C48.9354 60.3343 49.0045 60.3628 49.0533 60.4197C49.1021 60.4685 49.1265 60.5376 49.1265 60.627V61.115C49.1265 61.1963 49.1021 61.2654 49.0533 61.3223C49.0045 61.3711 48.9354 61.3955 48.8459 61.3955H43.8692ZM52.072 61.5175C51.6654 61.5175 51.2954 61.4362 50.962 61.2735C50.6286 61.1109 50.3602 60.8913 50.1569 60.6148C49.9536 60.3384 49.852 60.0253 49.852 59.6756C49.852 59.1145 50.0797 58.6673 50.535 58.3339C50.9904 58.0005 51.584 57.7809 52.3159 57.6752L54.1334 57.419V57.0653C54.1334 56.675 54.0195 56.37 53.7919 56.1505C53.5723 55.9309 53.2104 55.8211 52.7062 55.8211C52.3403 55.8211 52.0435 55.8943 51.8158 56.0407C51.5962 56.187 51.4417 56.3741 51.3523 56.6018C51.3035 56.7237 51.2181 56.7847 51.0961 56.7847H50.5472C50.4578 56.7847 50.3887 56.7603 50.3399 56.7116C50.2992 56.6546 50.2789 56.5896 50.2789 56.5164C50.2789 56.3944 50.3236 56.244 50.4131 56.0651C50.5106 55.8862 50.657 55.7113 50.8522 55.5406C51.0473 55.3698 51.2954 55.2275 51.5962 55.1136C51.9053 54.9917 52.2793 54.9307 52.7184 54.9307C53.2064 54.9307 53.617 54.9957 53.9504 55.1258C54.2838 55.2478 54.544 55.4145 54.7311 55.6259C54.9262 55.8374 55.0645 56.0773 55.1458 56.3456C55.2353 56.614 55.28 56.8864 55.28 57.1629V61.115C55.28 61.1963 55.2515 61.2654 55.1946 61.3223C55.1458 61.3711 55.0808 61.3955 54.9994 61.3955H54.4383C54.3489 61.3955 54.2798 61.3711 54.231 61.3223C54.1822 61.2654 54.1578 61.1963 54.1578 61.115V60.5905C54.0521 60.7368 53.9098 60.8832 53.7309 61.0296C53.552 61.1678 53.3283 61.2857 53.06 61.3833C52.7916 61.4728 52.4623 61.5175 52.072 61.5175ZM52.3281 60.6027C52.6615 60.6027 52.9665 60.5335 53.2429 60.3953C53.5194 60.2489 53.7349 60.0253 53.8894 59.7244C54.0521 59.4235 54.1334 59.0454 54.1334 58.59V58.2485L52.7184 58.4558C52.1411 58.5372 51.706 58.6754 51.4133 58.8706C51.1205 59.0576 50.9742 59.2975 50.9742 59.5902C50.9742 59.8179 51.0392 60.009 51.1693 60.1635C51.3076 60.3099 51.4783 60.4197 51.6816 60.4929C51.8931 60.5661 52.1086 60.6027 52.3281 60.6027ZM59.2291 61.5175C58.7737 61.5175 58.3834 61.4606 58.0581 61.3467C57.7329 61.2329 57.4686 61.0946 57.2653 60.932C57.062 60.7694 56.9075 60.6067 56.8018 60.4441C56.7042 60.2814 56.6513 60.1513 56.6432 60.0537C56.6351 59.9643 56.6635 59.8952 56.7286 59.8464C56.7936 59.7976 56.8587 59.7732 56.9237 59.7732H57.4604C57.5092 59.7732 57.5458 59.7813 57.5702 59.7976C57.6027 59.8057 57.6434 59.8383 57.6922 59.8952C57.7979 60.009 57.9158 60.1229 58.0459 60.2367C58.176 60.3506 58.3346 60.4441 58.5216 60.5173C58.7168 60.5905 58.9567 60.627 59.2413 60.627C59.656 60.627 59.9976 60.5498 60.2659 60.3953C60.5343 60.2327 60.6685 59.9968 60.6685 59.6878C60.6685 59.4845 60.6115 59.3219 60.4977 59.1999C60.392 59.0779 60.1968 58.9681 59.9122 58.8706C59.6357 58.773 59.2535 58.6713 58.7656 58.5656C58.2777 58.4518 57.8914 58.3135 57.6068 58.1509C57.3222 57.9801 57.1189 57.7809 56.9969 57.5532C56.8749 57.3174 56.814 57.0531 56.814 56.7603C56.814 56.4595 56.9034 56.1708 57.0823 55.8943C57.2612 55.6097 57.5214 55.3779 57.863 55.199C58.2126 55.0201 58.6477 54.9307 59.1681 54.9307C59.591 54.9307 59.9529 54.9835 60.2537 55.0892C60.5546 55.195 60.8026 55.3291 60.9978 55.4918C61.193 55.6463 61.3393 55.8008 61.4369 55.9553C61.5345 56.1098 61.5874 56.2399 61.5955 56.3456C61.6036 56.4269 61.5792 56.4961 61.5223 56.553C61.4654 56.6018 61.4003 56.6262 61.3271 56.6262H60.8148C60.7579 56.6262 60.7091 56.614 60.6685 56.5896C60.6359 56.5652 60.6034 56.5367 60.5709 56.5042C60.4896 56.3985 60.392 56.2928 60.2781 56.187C60.1724 56.0813 60.0301 55.9959 59.8512 55.9309C59.6804 55.8577 59.4527 55.8211 59.1681 55.8211C58.7615 55.8211 58.4566 55.9065 58.2533 56.0773C58.05 56.248 57.9483 56.4635 57.9483 56.7237C57.9483 56.8783 57.9931 57.0165 58.0825 57.1385C58.172 57.2605 58.3427 57.3702 58.5948 57.4678C58.8469 57.5654 59.221 57.6711 59.717 57.785C60.2537 57.8907 60.6766 58.033 60.9856 58.2119C61.2946 58.3908 61.5142 58.5981 61.6443 58.834C61.7744 59.0698 61.8394 59.3422 61.8394 59.6512C61.8394 59.9928 61.7378 60.3058 61.5345 60.5905C61.3393 60.8751 61.0466 61.1028 60.6563 61.2735C60.2741 61.4362 59.7983 61.5175 59.2291 61.5175ZM65.7158 61.3955C65.2604 61.3955 64.8904 61.3101 64.6058 61.1394C64.3212 60.9605 64.1138 60.7124 63.9837 60.3953C63.8536 60.07 63.7885 59.6878 63.7885 59.2487V56.0285H62.8371C62.7558 56.0285 62.6867 56.0041 62.6297 55.9553C62.5809 55.8984 62.5565 55.8292 62.5565 55.7479V55.3332C62.5565 55.2519 62.5809 55.1868 62.6297 55.138C62.6867 55.0811 62.7558 55.0526 62.8371 55.0526H63.7885V53.0156C63.7885 52.9343 63.8129 52.8692 63.8617 52.8205C63.9186 52.7635 63.9878 52.7351 64.0691 52.7351H64.6424C64.7237 52.7351 64.7887 52.7635 64.8375 52.8205C64.8945 52.8692 64.9229 52.9343 64.9229 53.0156V55.0526H66.4354C66.5168 55.0526 66.5818 55.0811 66.6306 55.138C66.6875 55.1868 66.716 55.2519 66.716 55.3332V55.7479C66.716 55.8292 66.6875 55.8984 66.6306 55.9553C66.5818 56.0041 66.5168 56.0285 66.4354 56.0285H64.9229V59.1633C64.9229 59.5455 64.988 59.8464 65.1181 60.0659C65.2482 60.2855 65.48 60.3953 65.8134 60.3953H66.5574C66.6387 60.3953 66.7038 60.4237 66.7526 60.4807C66.8095 60.5295 66.838 60.5945 66.838 60.6758V61.115C66.838 61.1963 66.8095 61.2654 66.7526 61.3223C66.7038 61.3711 66.6387 61.3955 66.5574 61.3955H65.7158ZM71.2748 61.3955C71.1935 61.3955 71.1244 61.3711 71.0675 61.3223C71.0187 61.2654 70.9943 61.1963 70.9943 61.115V55.3332C70.9943 55.2519 71.0187 55.1868 71.0675 55.138C71.1244 55.0811 71.1935 55.0526 71.2748 55.0526H71.8237C71.905 55.0526 71.9701 55.0811 72.0189 55.138C72.0758 55.1868 72.1043 55.2519 72.1043 55.3332V55.7601C72.2913 55.508 72.5271 55.3088 72.8118 55.1624C73.0964 55.0079 73.4379 54.9307 73.8364 54.9307C74.7553 54.9225 75.4058 55.2966 75.788 56.0529C75.975 55.7113 76.2475 55.4389 76.6053 55.2356C76.9631 55.0323 77.3697 54.9307 77.825 54.9307C78.2479 54.9307 78.6301 55.0283 78.9716 55.2234C79.3213 55.4186 79.5937 55.7154 79.7889 56.1139C79.9922 56.5042 80.0938 56.9962 80.0938 57.5898V61.115C80.0938 61.1963 80.0654 61.2654 80.0085 61.3223C79.9597 61.3711 79.8946 61.3955 79.8133 61.3955H79.24C79.1587 61.3955 79.0896 61.3711 79.0326 61.3223C78.9838 61.2654 78.9594 61.1963 78.9594 61.115V57.6996C78.9594 57.2442 78.8944 56.8864 78.7643 56.6262C78.6342 56.3659 78.4593 56.183 78.2398 56.0773C78.0202 55.9716 77.7803 55.9187 77.5201 55.9187C77.3087 55.9187 77.0932 55.9716 76.8736 56.0773C76.6541 56.183 76.4711 56.3659 76.3247 56.6262C76.1865 56.8864 76.1174 57.2442 76.1174 57.6996V61.115C76.1174 61.1963 76.0889 61.2654 76.032 61.3223C75.9832 61.3711 75.9181 61.3955 75.8368 61.3955H75.2635C75.1822 61.3955 75.1131 61.3711 75.0561 61.3223C75.0074 61.2654 74.983 61.1963 74.983 61.115V57.6996C74.983 57.2442 74.9138 56.8864 74.7756 56.6262C74.6374 56.3659 74.4585 56.183 74.2389 56.0773C74.0193 55.9716 73.7876 55.9187 73.5436 55.9187C73.3322 55.9187 73.1167 55.9716 72.8971 56.0773C72.6776 56.183 72.4946 56.3659 72.3482 56.6262C72.21 56.8864 72.1409 57.2401 72.1409 57.6874V61.115C72.1409 61.1963 72.1124 61.2654 72.0555 61.3223C72.0067 61.3711 71.9416 61.3955 71.8603 61.3955H71.2748ZM84.4323 61.5175C83.8142 61.5175 83.2979 61.3996 82.8831 61.1637C82.4684 60.9279 82.1513 60.6027 81.9317 60.1879C81.7121 59.7651 81.5902 59.2853 81.5658 58.7486C81.5576 58.6103 81.5536 58.4355 81.5536 58.2241C81.5536 58.0045 81.5576 57.8297 81.5658 57.6996C81.5902 57.1547 81.7121 56.675 81.9317 56.2602C82.1594 55.8455 82.4806 55.5202 82.8953 55.2844C83.3101 55.0486 83.8224 54.9307 84.4323 54.9307C85.0421 54.9307 85.5545 55.0486 85.9692 55.2844C86.3839 55.5202 86.701 55.8455 86.9206 56.2602C87.1483 56.675 87.2743 57.1547 87.2987 57.6996C87.3069 57.8297 87.3109 58.0045 87.3109 58.2241C87.3109 58.4355 87.3069 58.6103 87.2987 58.7486C87.2743 59.2853 87.1524 59.7651 86.9328 60.1879C86.7132 60.6027 86.3961 60.9279 85.9814 61.1637C85.5666 61.3996 85.0503 61.5175 84.4323 61.5175ZM84.4323 60.5783C84.9364 60.5783 85.339 60.4197 85.6398 60.1025C85.9407 59.7773 86.1034 59.3056 86.1277 58.6876C86.1359 58.5656 86.1399 58.4111 86.1399 58.2241C86.1399 58.037 86.1359 57.8825 86.1277 57.7606C86.1034 57.1425 85.9407 56.675 85.6398 56.3578C85.339 56.0325 84.9364 55.8699 84.4323 55.8699C83.9281 55.8699 83.5215 56.0325 83.2125 56.3578C82.9116 56.675 82.753 57.1425 82.7368 57.7606C82.7286 57.8825 82.7246 58.037 82.7246 58.2241C82.7246 58.4111 82.7286 58.5656 82.7368 58.6876C82.753 59.3056 82.9116 59.7773 83.2125 60.1025C83.5215 60.4197 83.9281 60.5783 84.4323 60.5783ZM89.1189 61.3955C89.0376 61.3955 88.9684 61.3711 88.9115 61.3223C88.8627 61.2654 88.8383 61.1963 88.8383 61.115V55.3332C88.8383 55.2519 88.8627 55.1868 88.9115 55.138C88.9684 55.0811 89.0376 55.0526 89.1189 55.0526H89.6922C89.7735 55.0526 89.8385 55.0811 89.8873 55.138C89.9443 55.1868 89.9727 55.2519 89.9727 55.3332V55.8699C90.1842 55.5934 90.4484 55.3698 90.7656 55.199C91.0909 55.0201 91.5056 54.9307 92.0098 54.9307C92.5383 54.9307 92.9856 55.0486 93.3515 55.2844C93.7256 55.5121 94.0061 55.8333 94.1932 56.248C94.3802 56.6546 94.4737 57.1303 94.4737 57.6752V61.115C94.4737 61.1963 94.4493 61.2654 94.4005 61.3223C94.3517 61.3711 94.2867 61.3955 94.2054 61.3955H93.5955C93.5142 61.3955 93.445 61.3711 93.3881 61.3223C93.3393 61.2654 93.3149 61.1963 93.3149 61.115V57.7362C93.3149 57.1669 93.1767 56.7237 92.9002 56.4066C92.6237 56.0813 92.2171 55.9187 91.6804 55.9187C91.1762 55.9187 90.7696 56.0813 90.4606 56.4066C90.1598 56.7237 90.0093 57.1669 90.0093 57.7362V61.115C90.0093 61.1963 89.9809 61.2654 89.9239 61.3223C89.8751 61.3711 89.8101 61.3955 89.7288 61.3955H89.1189ZM98.6284 61.3955C98.173 61.3955 97.803 61.3101 97.5184 61.1394C97.2338 60.9605 97.0264 60.7124 96.8963 60.3953C96.7662 60.07 96.7011 59.6878 96.7011 59.2487V56.0285H95.7497C95.6684 56.0285 95.5993 56.0041 95.5424 55.9553C95.4936 55.8984 95.4692 55.8292 95.4692 55.7479V55.3332C95.4692 55.2519 95.4936 55.1868 95.5424 55.138C95.5993 55.0811 95.6684 55.0526 95.7497 55.0526H96.7011V53.0156C96.7011 52.9343 96.7255 52.8692 96.7743 52.8205C96.8313 52.7635 96.9004 52.7351 96.9817 52.7351H97.555C97.6363 52.7351 97.7014 52.7635 97.7502 52.8205C97.8071 52.8692 97.8355 52.9343 97.8355 53.0156V55.0526H99.3481C99.4294 55.0526 99.4944 55.0811 99.5432 55.138C99.6002 55.1868 99.6286 55.2519 99.6286 55.3332V55.7479C99.6286 55.8292 99.6002 55.8984 99.5432 55.9553C99.4944 56.0041 99.4294 56.0285 99.3481 56.0285H97.8355V59.1633C97.8355 59.5455 97.9006 59.8464 98.0307 60.0659C98.1608 60.2855 98.3926 60.3953 98.726 60.3953H99.47C99.5514 60.3953 99.6164 60.4237 99.6652 60.4807C99.7221 60.5295 99.7506 60.5945 99.7506 60.6758V61.115C99.7506 61.1963 99.7221 61.2654 99.6652 61.3223C99.6164 61.3711 99.5514 61.3955 99.47 61.3955H98.6284ZM101.21 61.3955C101.128 61.3955 101.059 61.3711 101.002 61.3223C100.954 61.2654 100.929 61.1963 100.929 61.115V53.0156C100.929 52.9343 100.954 52.8692 101.002 52.8205C101.059 52.7635 101.128 52.7351 101.21 52.7351H101.82C101.909 52.7351 101.978 52.7635 102.027 52.8205C102.076 52.8692 102.1 52.9343 102.1 53.0156V55.8577C102.32 55.5812 102.588 55.3576 102.905 55.1868C103.222 55.0161 103.625 54.9307 104.113 54.9307C104.641 54.9307 105.089 55.0486 105.455 55.2844C105.829 55.5121 106.109 55.8333 106.296 56.248C106.491 56.6546 106.589 57.1303 106.589 57.6752V61.115C106.589 61.1963 106.565 61.2654 106.516 61.3223C106.467 61.3711 106.398 61.3955 106.308 61.3955H105.699C105.617 61.3955 105.548 61.3711 105.491 61.3223C105.442 61.2654 105.418 61.1963 105.418 61.115V57.7362C105.418 57.1669 105.28 56.7237 105.003 56.4066C104.727 56.0813 104.32 55.9187 103.783 55.9187C103.279 55.9187 102.873 56.0813 102.564 56.4066C102.255 56.7237 102.1 57.1669 102.1 57.7362V61.115C102.1 61.1963 102.076 61.2654 102.027 61.3223C101.978 61.3711 101.909 61.3955 101.82 61.3955H101.21Z" fill="#F8F8F8" fill-opacity="0.7"/>
<circle cx="147.055" cy="35.4946" r="5" fill="#E77CFE"/>
<circle cx="147.055" cy="35.4946" r="4.49176" stroke="url(#paint7_linear_35_7211)" stroke-opacity="0.25" stroke-width="1.01648"/>
<path d="M164.975 43.874V29.0888H165.922V43.874H164.975ZM167.938 33.6745C167.876 33.1278 167.622 32.7043 167.175 32.4039C166.729 32.0998 166.166 31.9477 165.489 31.9477C165.004 31.9477 164.584 32.0247 164.23 32.1787C163.875 32.3289 163.6 32.5368 163.404 32.8024C163.211 33.0643 163.115 33.3627 163.115 33.6976C163.115 33.9787 163.18 34.2213 163.311 34.4254C163.446 34.6294 163.621 34.8008 163.837 34.9394C164.056 35.0741 164.291 35.1877 164.542 35.2801C164.792 35.3687 165.032 35.4418 165.263 35.4996L166.419 35.7999C166.796 35.8923 167.183 36.0175 167.579 36.1753C167.976 36.3332 168.344 36.5411 168.683 36.7991C169.021 37.057 169.295 37.3766 169.503 37.7578C169.714 38.139 169.82 38.5952 169.82 39.1266C169.82 39.7965 169.647 40.3914 169.301 40.9112C168.958 41.431 168.459 41.8411 167.805 42.1414C167.154 42.4417 166.367 42.5919 165.443 42.5919C164.557 42.5919 163.791 42.4513 163.144 42.1703C162.497 41.8892 161.991 41.4907 161.625 40.9747C161.259 40.4549 161.057 39.8389 161.018 39.1266H162.809C162.844 39.554 162.982 39.9101 163.225 40.1951C163.471 40.4761 163.785 40.686 164.166 40.8246C164.551 40.9593 164.973 41.0267 165.431 41.0267C165.935 41.0267 166.384 40.9478 166.777 40.7899C167.173 40.6282 167.485 40.4049 167.712 40.12C167.939 39.8312 168.053 39.4943 168.053 39.1093C168.053 38.7589 167.953 38.472 167.753 38.2487C167.556 38.0254 167.289 37.8406 166.95 37.6943C166.615 37.548 166.236 37.419 165.812 37.3073L164.414 36.9261C163.467 36.6682 162.716 36.2889 162.162 35.7884C161.611 35.2878 161.336 34.6256 161.336 33.8016C161.336 33.1201 161.521 32.5252 161.891 32.017C162.26 31.5087 162.761 31.1141 163.392 30.833C164.024 30.5481 164.736 30.4056 165.529 30.4056C166.33 30.4056 167.037 30.5462 167.649 30.8272C168.265 31.1083 168.75 31.4953 169.104 31.9881C169.458 32.4771 169.643 33.0392 169.659 33.6745H167.938ZM176.279 30.5673V42.3955H174.488V32.3577H174.419L171.589 34.2059V32.4963L174.54 30.5673H176.279ZM181.065 40.7784L180.979 41.4079C180.921 41.8699 180.823 42.3512 180.684 42.8518C180.549 43.3562 180.409 43.824 180.262 44.2552C180.12 44.6864 180.002 45.0291 179.91 45.2832H178.686C178.736 45.0445 178.805 44.7211 178.894 44.313C178.982 43.9087 179.069 43.4563 179.153 42.9557C179.238 42.4552 179.302 41.945 179.344 41.4252L179.402 40.7784H181.065ZM187.17 42.5919C186.257 42.588 185.478 42.3474 184.831 41.8699C184.184 41.3925 183.689 40.6975 183.346 39.785C183.004 38.8725 182.832 37.7732 182.832 36.4872C182.832 35.205 183.004 34.1096 183.346 33.201C183.693 32.2923 184.19 31.5992 184.837 31.1218C185.487 30.6443 186.265 30.4056 187.17 30.4056C188.075 30.4056 188.851 30.6463 189.497 31.1276C190.144 31.605 190.639 32.2981 190.982 33.2067C191.328 34.1116 191.501 35.205 191.501 36.4872C191.501 37.7771 191.33 38.8782 190.987 39.7908C190.645 40.6994 190.15 41.3944 189.503 41.8757C188.856 42.3532 188.079 42.5919 187.17 42.5919ZM187.17 41.0498C187.971 41.0498 188.596 40.659 189.047 39.8774C189.501 39.0958 189.728 37.9657 189.728 36.4872C189.728 35.5054 189.624 34.6756 189.417 33.998C189.212 33.3165 188.918 32.8005 188.533 32.4501C188.152 32.0959 187.697 31.9188 187.17 31.9188C186.373 31.9188 185.747 32.3115 185.293 33.097C184.838 33.8825 184.609 35.0125 184.606 36.4872C184.606 37.4729 184.708 38.3065 184.912 38.988C185.12 39.6656 185.414 40.1797 185.795 40.53C186.176 40.8766 186.635 41.0498 187.17 41.0498ZM193.55 42.3955V41.1018L197.553 36.955C197.98 36.5045 198.332 36.1099 198.61 35.771C198.891 35.4284 199.101 35.103 199.239 34.795C199.378 34.487 199.447 34.1597 199.447 33.8132C199.447 33.4204 199.355 33.0816 199.17 32.7967C198.985 32.5079 198.733 32.2865 198.413 32.1325C198.094 31.9746 197.734 31.8957 197.333 31.8957C196.91 31.8957 196.54 31.9823 196.224 32.1556C195.909 32.3289 195.666 32.5734 195.497 32.8891C195.327 33.2048 195.243 33.5744 195.243 33.998H193.539C193.539 33.278 193.704 32.6484 194.035 32.1094C194.367 31.5703 194.821 31.1526 195.398 30.8561C195.976 30.5558 196.632 30.4056 197.368 30.4056C198.111 30.4056 198.766 30.5539 199.332 30.8503C199.901 31.143 200.346 31.5434 200.666 32.0516C200.985 32.556 201.145 33.1259 201.145 33.7612C201.145 34.2001 201.062 34.6294 200.897 35.0491C200.735 35.4688 200.452 35.9366 200.048 36.4525C199.643 36.9646 199.081 37.5865 198.361 38.318L196.011 40.7784V40.865H201.336V42.3955H193.55ZM203.022 40.0853V38.6414L208.133 30.5673H209.271V32.6927H208.549L204.893 38.4797V38.5721H211.899V40.0853H203.022ZM208.63 42.3955V39.6464L208.642 38.988V30.5673H210.334V42.3955H208.63Z" fill="#F8F8F8" fill-opacity="0.95"/>
<path d="M163.395 61.3955C163.314 61.3955 163.244 61.3711 163.187 61.3223C163.139 61.2654 163.114 61.1963 163.114 61.115V53.9427H160.772C160.691 53.9427 160.622 53.9183 160.565 53.8695C160.516 53.8125 160.492 53.7434 160.492 53.6621V53.1498C160.492 53.0603 160.516 52.9912 160.565 52.9424C160.622 52.8855 160.691 52.857 160.772 52.857H166.652C166.741 52.857 166.81 52.8855 166.859 52.9424C166.916 52.9912 166.944 53.0603 166.944 53.1498V53.6621C166.944 53.7434 166.916 53.8125 166.859 53.8695C166.81 53.9183 166.741 53.9427 166.652 53.9427H164.322V61.115C164.322 61.1963 164.293 61.2654 164.236 61.3223C164.188 61.3711 164.119 61.3955 164.029 61.3955H163.395ZM168.196 61.3955C168.115 61.3955 168.045 61.3711 167.988 61.3223C167.94 61.2654 167.915 61.1963 167.915 61.115V53.0156C167.915 52.9343 167.94 52.8692 167.988 52.8205C168.045 52.7635 168.115 52.7351 168.196 52.7351H168.806C168.895 52.7351 168.964 52.7635 169.013 52.8205C169.062 52.8692 169.086 52.9343 169.086 53.0156V55.8577C169.306 55.5812 169.574 55.3576 169.891 55.1868C170.208 55.0161 170.611 54.9307 171.099 54.9307C171.627 54.9307 172.075 55.0486 172.441 55.2844C172.815 55.5121 173.095 55.8333 173.282 56.248C173.477 56.6546 173.575 57.1303 173.575 57.6752V61.115C173.575 61.1963 173.551 61.2654 173.502 61.3223C173.453 61.3711 173.384 61.3955 173.295 61.3955H172.685C172.603 61.3955 172.534 61.3711 172.477 61.3223C172.428 61.2654 172.404 61.1963 172.404 61.115V57.7362C172.404 57.1669 172.266 56.7237 171.989 56.4066C171.713 56.0813 171.306 55.9187 170.77 55.9187C170.265 55.9187 169.859 56.0813 169.55 56.4066C169.241 56.7237 169.086 57.1669 169.086 57.7362V61.115C169.086 61.1963 169.062 61.2654 169.013 61.3223C168.964 61.3711 168.895 61.3955 168.806 61.3955H168.196ZM175.617 61.3955C175.535 61.3955 175.466 61.3711 175.409 61.3223C175.361 61.2654 175.336 61.1963 175.336 61.115V55.3332C175.336 55.2519 175.361 55.1868 175.409 55.138C175.466 55.0811 175.535 55.0526 175.617 55.0526H176.202C176.283 55.0526 176.349 55.0811 176.397 55.138C176.446 55.1868 176.471 55.2519 176.471 55.3332V61.115C176.471 61.1963 176.446 61.2654 176.397 61.3223C176.349 61.3711 176.283 61.3955 176.202 61.3955H175.617ZM175.519 53.8695C175.438 53.8695 175.369 53.8451 175.312 53.7963C175.263 53.7394 175.239 53.6702 175.239 53.5889V52.9302C175.239 52.8489 175.263 52.7839 175.312 52.7351C175.369 52.6781 175.438 52.6497 175.519 52.6497H176.288C176.369 52.6497 176.434 52.6781 176.483 52.7351C176.54 52.7839 176.568 52.8489 176.568 52.9302V53.5889C176.568 53.6702 176.54 53.7394 176.483 53.7963C176.434 53.8451 176.369 53.8695 176.288 53.8695H175.519ZM180.486 61.5175C180.03 61.5175 179.64 61.4606 179.315 61.3467C178.99 61.2329 178.725 61.0946 178.522 60.932C178.319 60.7694 178.164 60.6067 178.059 60.4441C177.961 60.2814 177.908 60.1513 177.9 60.0537C177.892 59.9643 177.92 59.8952 177.985 59.8464C178.05 59.7976 178.115 59.7732 178.18 59.7732H178.717C178.766 59.7732 178.803 59.7813 178.827 59.7976C178.86 59.8057 178.9 59.8383 178.949 59.8952C179.055 60.009 179.173 60.1229 179.303 60.2367C179.433 60.3506 179.591 60.4441 179.778 60.5173C179.974 60.5905 180.213 60.627 180.498 60.627C180.913 60.627 181.254 60.5498 181.523 60.3953C181.791 60.2327 181.925 59.9968 181.925 59.6878C181.925 59.4845 181.868 59.3219 181.754 59.1999C181.649 59.0779 181.454 58.9681 181.169 58.8706C180.892 58.773 180.51 58.6713 180.022 58.5656C179.534 58.4518 179.148 58.3135 178.864 58.1509C178.579 57.9801 178.376 57.7809 178.254 57.5532C178.132 57.3174 178.071 57.0531 178.071 56.7603C178.071 56.4595 178.16 56.1708 178.339 55.8943C178.518 55.6097 178.778 55.3779 179.12 55.199C179.469 55.0201 179.904 54.9307 180.425 54.9307C180.848 54.9307 181.21 54.9835 181.51 55.0892C181.811 55.195 182.059 55.3291 182.255 55.4918C182.45 55.6463 182.596 55.8008 182.694 55.9553C182.791 56.1098 182.844 56.2399 182.852 56.3456C182.86 56.4269 182.836 56.4961 182.779 56.553C182.722 56.6018 182.657 56.6262 182.584 56.6262H182.072C182.015 56.6262 181.966 56.614 181.925 56.5896C181.893 56.5652 181.86 56.5367 181.828 56.5042C181.746 56.3985 181.649 56.2928 181.535 56.187C181.429 56.0813 181.287 55.9959 181.108 55.9309C180.937 55.8577 180.71 55.8211 180.425 55.8211C180.018 55.8211 179.713 55.9065 179.51 56.0773C179.307 56.248 179.205 56.4635 179.205 56.7237C179.205 56.8783 179.25 57.0165 179.339 57.1385C179.429 57.2605 179.6 57.3702 179.852 57.4678C180.104 57.5654 180.478 57.6711 180.974 57.785C181.51 57.8907 181.933 58.033 182.242 58.2119C182.551 58.3908 182.771 58.5981 182.901 58.834C183.031 59.0698 183.096 59.3422 183.096 59.6512C183.096 59.9928 182.995 60.3058 182.791 60.5905C182.596 60.8751 182.303 61.1028 181.913 61.2735C181.531 61.4362 181.055 61.5175 180.486 61.5175ZM187.779 61.3955C187.697 61.3955 187.628 61.3711 187.571 61.3223C187.523 61.2654 187.498 61.1963 187.498 61.115V55.3332C187.498 55.2519 187.523 55.1868 187.571 55.138C187.628 55.0811 187.697 55.0526 187.779 55.0526H188.328C188.409 55.0526 188.474 55.0811 188.523 55.138C188.58 55.1868 188.608 55.2519 188.608 55.3332V55.7601C188.795 55.508 189.031 55.3088 189.316 55.1624C189.6 55.0079 189.942 54.9307 190.34 54.9307C191.259 54.9225 191.91 55.2966 192.292 56.0529C192.479 55.7113 192.751 55.4389 193.109 55.2356C193.467 55.0323 193.874 54.9307 194.329 54.9307C194.752 54.9307 195.134 55.0283 195.476 55.2234C195.825 55.4186 196.098 55.7154 196.293 56.1139C196.496 56.5042 196.598 56.9962 196.598 57.5898V61.115C196.598 61.1963 196.569 61.2654 196.512 61.3223C196.464 61.3711 196.399 61.3955 196.317 61.3955H195.744C195.663 61.3955 195.593 61.3711 195.537 61.3223C195.488 61.2654 195.463 61.1963 195.463 61.115V57.6996C195.463 57.2442 195.398 56.8864 195.268 56.6262C195.138 56.3659 194.963 56.183 194.744 56.0773C194.524 55.9716 194.284 55.9187 194.024 55.9187C193.813 55.9187 193.597 55.9716 193.378 56.0773C193.158 56.183 192.975 56.3659 192.829 56.6262C192.69 56.8864 192.621 57.2442 192.621 57.6996V61.115C192.621 61.1963 192.593 61.2654 192.536 61.3223C192.487 61.3711 192.422 61.3955 192.341 61.3955H191.767C191.686 61.3955 191.617 61.3711 191.56 61.3223C191.511 61.2654 191.487 61.1963 191.487 61.115V57.6996C191.487 57.2442 191.418 56.8864 191.28 56.6262C191.141 56.3659 190.962 56.183 190.743 56.0773C190.523 55.9716 190.291 55.9187 190.048 55.9187C189.836 55.9187 189.621 55.9716 189.401 56.0773C189.181 56.183 188.999 56.3659 188.852 56.6262C188.714 56.8864 188.645 57.2401 188.645 57.6874V61.115C188.645 61.1963 188.616 61.2654 188.559 61.3223C188.511 61.3711 188.446 61.3955 188.364 61.3955H187.779ZM200.936 61.5175C200.318 61.5175 199.802 61.3996 199.387 61.1637C198.972 60.9279 198.655 60.6027 198.436 60.1879C198.216 59.7651 198.094 59.2853 198.07 58.7486C198.062 58.6103 198.057 58.4355 198.057 58.2241C198.057 58.0045 198.062 57.8297 198.07 57.6996C198.094 57.1547 198.216 56.675 198.436 56.2602C198.663 55.8455 198.985 55.5202 199.399 55.2844C199.814 55.0486 200.326 54.9307 200.936 54.9307C201.546 54.9307 202.058 55.0486 202.473 55.2844C202.888 55.5202 203.205 55.8455 203.425 56.2602C203.652 56.675 203.778 57.1547 203.803 57.6996C203.811 57.8297 203.815 58.0045 203.815 58.2241C203.815 58.4355 203.811 58.6103 203.803 58.7486C203.778 59.2853 203.656 59.7651 203.437 60.1879C203.217 60.6027 202.9 60.9279 202.485 61.1637C202.071 61.3996 201.554 61.5175 200.936 61.5175ZM200.936 60.5783C201.44 60.5783 201.843 60.4197 202.144 60.1025C202.445 59.7773 202.607 59.3056 202.632 58.6876C202.64 58.5656 202.644 58.4111 202.644 58.2241C202.644 58.037 202.64 57.8825 202.632 57.7606C202.607 57.1425 202.445 56.675 202.144 56.3578C201.843 56.0325 201.44 55.8699 200.936 55.8699C200.432 55.8699 200.025 56.0325 199.716 56.3578C199.416 56.675 199.257 57.1425 199.241 57.7606C199.233 57.8825 199.228 58.037 199.228 58.2241C199.228 58.4111 199.233 58.5656 199.241 58.6876C199.257 59.3056 199.416 59.7773 199.716 60.1025C200.025 60.4197 200.432 60.5783 200.936 60.5783ZM205.623 61.3955C205.541 61.3955 205.472 61.3711 205.415 61.3223C205.367 61.2654 205.342 61.1963 205.342 61.115V55.3332C205.342 55.2519 205.367 55.1868 205.415 55.138C205.472 55.0811 205.541 55.0526 205.623 55.0526H206.196C206.277 55.0526 206.342 55.0811 206.391 55.138C206.448 55.1868 206.477 55.2519 206.477 55.3332V55.8699C206.688 55.5934 206.952 55.3698 207.269 55.199C207.595 55.0201 208.009 54.9307 208.514 54.9307C209.042 54.9307 209.489 55.0486 209.855 55.2844C210.229 55.5121 210.51 55.8333 210.697 56.248C210.884 56.6546 210.978 57.1303 210.978 57.6752V61.115C210.978 61.1963 210.953 61.2654 210.904 61.3223C210.856 61.3711 210.791 61.3955 210.709 61.3955H210.099C210.018 61.3955 209.949 61.3711 209.892 61.3223C209.843 61.2654 209.819 61.1963 209.819 61.115V57.7362C209.819 57.1669 209.681 56.7237 209.404 56.4066C209.128 56.0813 208.721 55.9187 208.184 55.9187C207.68 55.9187 207.274 56.0813 206.965 56.4066C206.664 56.7237 206.513 57.1669 206.513 57.7362V61.115C206.513 61.1963 206.485 61.2654 206.428 61.3223C206.379 61.3711 206.314 61.3955 206.233 61.3955H205.623ZM215.132 61.3955C214.677 61.3955 214.307 61.3101 214.022 61.1394C213.738 60.9605 213.53 60.7124 213.4 60.3953C213.27 60.07 213.205 59.6878 213.205 59.2487V56.0285H212.254C212.172 56.0285 212.103 56.0041 212.046 55.9553C211.997 55.8984 211.973 55.8292 211.973 55.7479V55.3332C211.973 55.2519 211.997 55.1868 212.046 55.138C212.103 55.0811 212.172 55.0526 212.254 55.0526H213.205V53.0156C213.205 52.9343 213.229 52.8692 213.278 52.8205C213.335 52.7635 213.404 52.7351 213.486 52.7351H214.059C214.14 52.7351 214.205 52.7635 214.254 52.8205C214.311 52.8692 214.339 52.9343 214.339 53.0156V55.0526H215.852C215.933 55.0526 215.998 55.0811 216.047 55.138C216.104 55.1868 216.133 55.2519 216.133 55.3332V55.7479C216.133 55.8292 216.104 55.8984 216.047 55.9553C215.998 56.0041 215.933 56.0285 215.852 56.0285H214.339V59.1633C214.339 59.5455 214.405 59.8464 214.535 60.0659C214.665 60.2855 214.896 60.3953 215.23 60.3953H215.974C216.055 60.3953 216.12 60.4237 216.169 60.4807C216.226 60.5295 216.255 60.5945 216.255 60.6758V61.115C216.255 61.1963 216.226 61.2654 216.169 61.3223C216.12 61.3711 216.055 61.3955 215.974 61.3955H215.132ZM217.714 61.3955C217.632 61.3955 217.563 61.3711 217.506 61.3223C217.458 61.2654 217.433 61.1963 217.433 61.115V53.0156C217.433 52.9343 217.458 52.8692 217.506 52.8205C217.563 52.7635 217.632 52.7351 217.714 52.7351H218.324C218.413 52.7351 218.482 52.7635 218.531 52.8205C218.58 52.8692 218.604 52.9343 218.604 53.0156V55.8577C218.824 55.5812 219.092 55.3576 219.409 55.1868C219.726 55.0161 220.129 54.9307 220.617 54.9307C221.145 54.9307 221.593 55.0486 221.959 55.2844C222.333 55.5121 222.613 55.8333 222.8 56.248C222.995 56.6546 223.093 57.1303 223.093 57.6752V61.115C223.093 61.1963 223.069 61.2654 223.02 61.3223C222.971 61.3711 222.902 61.3955 222.812 61.3955H222.202C222.121 61.3955 222.052 61.3711 221.995 61.3223C221.946 61.2654 221.922 61.1963 221.922 61.115V57.7362C221.922 57.1669 221.784 56.7237 221.507 56.4066C221.231 56.0813 220.824 55.9187 220.287 55.9187C219.783 55.9187 219.377 56.0813 219.068 56.4066C218.759 56.7237 218.604 57.1669 218.604 57.7362V61.115C218.604 61.1963 218.58 61.2654 218.531 61.3223C218.482 61.3711 218.413 61.3955 218.324 61.3955H217.714Z" fill="#F8F8F8" fill-opacity="0.7"/>
<foreignObject x="292.945" y="12.4667" width="64.8572" height="93.3186"><div xmlns="http://www.w3.org/1999/xhtml" style="backdrop-filter:blur(6.1px);clip-path:url(#bgblur_5_35_7211_clip_path);height:100%;width:100%"></div></foreignObject><g filter="url(#filter3_di_35_7211)" data-figma-bg-blur-radius="12.1978">
<g clip-path="url(#clip4_35_7211)">
<g filter="url(#filter4_d_35_7211)">
<rect x="311.143" y="30.6646" width="28.4615" height="28.4615" rx="14.2308" fill="#F8F8F8" fill-opacity="0.05" style="mix-blend-mode:luminosity" shape-rendering="crispEdges"/>
<path d="M325.374 40.4482V44.8954M325.374 44.8954V49.3425M325.374 44.8954H320.926M325.374 44.8954H329.821" stroke="#F8F8F8" stroke-width="1.52473" stroke-linecap="round"/>
</g>
</g>
<rect x="305.643" y="25.1646" width="39.4615" height="39.4615" rx="19.7308" stroke="white" stroke-opacity="0.05" shape-rendering="crispEdges"/>
</g>
</g>
</g>
</g>
<defs>
<clipPath id="bgblur_0_35_7211_clip_path" transform="translate(120 120)"><path d="M0 24C0 10.7452 10.7452 0 24 0H346C359.255 0 370 10.7452 370 24V286C370 299.255 359.255 310 346 310H24C10.7452 310 0 299.255 0 286V24Z"/>
</clipPath><filter id="filter1_di_35_7211" x="71.4615" y="136.308" width="44.7253" height="73.1867" filterUnits="userSpaceOnUse" color-interpolation-filters="sRGB">
<feFlood flood-opacity="0" result="BackgroundImageFix"/>
<feColorMatrix in="SourceAlpha" type="matrix" values="0 0 0 0 0 0 0 0 0 0 0 0 0 0 0 0 0 0 127 0" result="hardAlpha"/>
<feMorphology radius="16.2637" operator="erode" in="SourceAlpha" result="effect1_dropShadow_35_7211"/>
<feOffset dy="32.5275"/>
<feGaussianBlur stdDeviation="12.1978"/>
<feComposite in2="hardAlpha" operator="out"/>
<feColorMatrix type="matrix" values="0 0 0 0 0 0 0 0 0 0 0 0 0 0 0 0 0 0 0.4 0"/>
<feBlend mode="multiply" in2="BackgroundImageFix" result="effect1_dropShadow_35_7211"/>
<feBlend mode="normal" in="SourceGraphic" in2="effect1_dropShadow_35_7211" result="shape"/>
<feColorMatrix in="SourceAlpha" type="matrix" values="0 0 0 0 0 0 0 0 0 0 0 0 0 0 0 0 0 0 127 0" result="hardAlpha"/>
<feOffset/>
<feGaussianBlur stdDeviation="4.06593"/>
<feComposite in2="hardAlpha" operator="arithmetic" k2="-1" k3="1"/>
<feColorMatrix type="matrix" values="0 0 0 0 0.972549 0 0 0 0 0.972549 0 0 0 0 0.972549 0 0 0 0.25 0"/>
<feBlend mode="normal" in2="shape" result="effect2_innerShadow_35_7211"/>
</filter>
<clipPath id="bgblur_2_35_7211_clip_path" transform="translate(-71.4615 -136.308)"><circle cx="93.8242" cy="158.67" r="10.1648"/>
</clipPath><filter id="filter2_di_35_7211" x="97.8901" y="162.736" width="84.3681" height="75.2199" filterUnits="userSpaceOnUse" color-interpolation-filters="sRGB">
<feFlood flood-opacity="0" result="BackgroundImageFix"/>
<feColorMatrix in="SourceAlpha" type="matrix" values="0 0 0 0 0 0 0 0 0 0 0 0 0 0 0 0 0 0 127 0" result="hardAlpha"/>
<feMorphology radius="16.2637" operator="erode" in="SourceAlpha" result="effect1_dropShadow_35_7211"/>
<feOffset dy="32.5275"/>
<feGaussianBlur stdDeviation="12.1978"/>
<feComposite in2="hardAlpha" operator="out"/>
<feColorMatrix type="matrix" values="0 0 0 0 0 0 0 0 0 0 0 0 0 0 0 0 0 0 0.4 0"/>
<feBlend mode="multiply" in2="BackgroundImageFix" result="effect1_dropShadow_35_7211"/>
<feBlend mode="normal" in="SourceGraphic" in2="effect1_dropShadow_35_7211" result="shape"/>
<feColorMatrix in="SourceAlpha" type="matrix" values="0 0 0 0 0 0 0 0 0 0 0 0 0 0 0 0 0 0 127 0" result="hardAlpha"/>
<feOffset/>
<feGaussianBlur stdDeviation="4.06593"/>
<feComposite in2="hardAlpha" operator="arithmetic" k2="-1" k3="1"/>
<feColorMatrix type="matrix" values="0 0 0 0 0.972549 0 0 0 0 0.972549 0 0 0 0 0.972549 0 0 0 0.25 0"/>
<feBlend mode="normal" in2="shape" result="effect2_innerShadow_35_7211"/>
</filter>
<clipPath id="bgblur_3_35_7211_clip_path" transform="translate(-97.8901 -162.736)"><rect x="110.088" y="174.934" width="59.9725" height="22.3626" rx="8.13187"/>
</clipPath><filter id="filter3_di_35_7211" x="292.945" y="12.4667" width="64.8572" height="93.3186" filterUnits="userSpaceOnUse" color-interpolation-filters="sRGB">
<feFlood flood-opacity="0" result="BackgroundImageFix"/>
<feColorMatrix in="SourceAlpha" type="matrix" values="0 0 0 0 0 0 0 0 0 0 0 0 0 0 0 0 0 0 127 0" result="hardAlpha"/>
<feMorphology radius="16.2637" operator="erode" in="SourceAlpha" result="effect1_dropShadow_35_7211"/>
<feOffset dy="32.5275"/>
<feGaussianBlur stdDeviation="12.1978"/>
<feComposite in2="hardAlpha" operator="out"/>
<feColorMatrix type="matrix" values="0 0 0 0 0 0 0 0 0 0 0 0 0 0 0 0 0 0 0.4 0"/>
<feBlend mode="multiply" in2="BackgroundImageFix" result="effect1_dropShadow_35_7211"/>
<feBlend mode="normal" in="SourceGraphic" in2="effect1_dropShadow_35_7211" result="shape"/>
<feColorMatrix in="SourceAlpha" type="matrix" values="0 0 0 0 0 0 0 0 0 0 0 0 0 0 0 0 0 0 127 0" result="hardAlpha"/>
<feOffset/>
<feGaussianBlur stdDeviation="3"/>
<feComposite in2="hardAlpha" operator="arithmetic" k2="-1" k3="1"/>
<feColorMatrix type="matrix" values="0 0 0 0 0.972549 0 0 0 0 0.972549 0 0 0 0 0.972549 0 0 0 0.2 0"/>
<feBlend mode="normal" in2="shape" result="effect2_innerShadow_35_7211"/>
</filter>
<clipPath id="bgblur_5_35_7211_clip_path" transform="translate(-292.945 -12.4667)"><rect x="305.143" y="24.6646" width="40.4615" height="40.4615" rx="20.2308"/>
</clipPath><filter id="filter4_d_35_7211" x="286.747" y="30.6646" width="77.2528" height="77.2526" filterUnits="userSpaceOnUse" color-interpolation-filters="sRGB">
<feFlood flood-opacity="0" result="BackgroundImageFix"/>
<feColorMatrix in="SourceAlpha" type="matrix" values="0 0 0 0 0 0 0 0 0 0 0 0 0 0 0 0 0 0 127 0" result="hardAlpha"/>
<feOffset dy="24.3956"/>
<feGaussianBlur stdDeviation="12.1978"/>
<feComposite in2="hardAlpha" operator="out"/>
<feColorMatrix type="matrix" values="0 0 0 0 0 0 0 0 0 0 0 0 0 0 0 0 0 0 0.3 0"/>
<feBlend mode="multiply" in2="BackgroundImageFix" result="effect1_dropShadow_35_7211"/>
<feBlend mode="normal" in="SourceGraphic" in2="effect1_dropShadow_35_7211" result="shape"/>
</filter>
<linearGradient id="paint0_linear_35_7211" x1="185" y1="68.7351" x2="185" y2="310" gradientUnits="userSpaceOnUse">
<stop stop-color="white"/>
<stop offset="1" stop-color="#17111D" stop-opacity="0.6"/>
</linearGradient>
<radialGradient id="paint1_radial_35_7211" cx="0" cy="0" r="1" gradientUnits="userSpaceOnUse" gradientTransform="translate(185 203.225) rotate(90) scale(170.769)">
<stop stop-color="white"/>
<stop offset="1" stop-color="white" stop-opacity="0"/>
</radialGradient>
<linearGradient id="paint2_linear_35_7211" x1="185" y1="283.097" x2="205.109" y2="-20.1077" gradientUnits="userSpaceOnUse">
<stop stop-color="white" stop-opacity="0"/>
<stop offset="0.571573" stop-color="white" stop-opacity="0.9"/>
<stop offset="1" stop-color="white"/>
</linearGradient>
<linearGradient id="paint3_linear_35_7211" x1="-1.33461e-06" y1="185.379" x2="369.471" y2="210.846" gradientUnits="userSpaceOnUse">
<stop stop-color="white" stop-opacity="0.5"/>
<stop offset="1" stop-color="white" stop-opacity="0.9"/>
</linearGradient>
<linearGradient id="paint4_linear_35_7211" x1="93.8242" y1="148.505" x2="102.668" y2="170.83" gradientUnits="userSpaceOnUse">
<stop stop-color="white" stop-opacity="0.4"/>
<stop offset="0.4" stop-color="white" stop-opacity="0.01"/>
<stop offset="0.6" stop-color="white" stop-opacity="0.01"/>
<stop offset="1" stop-color="white" stop-opacity="0.1"/>
</linearGradient>
<linearGradient id="paint5_linear_35_7211" x1="140.074" y1="174.934" x2="144.181" y2="202.738" gradientUnits="userSpaceOnUse">
<stop stop-color="white" stop-opacity="0.4"/>
<stop offset="0.4" stop-color="white" stop-opacity="0.01"/>
<stop offset="0.6" stop-color="white" stop-opacity="0.01"/>
<stop offset="1" stop-color="white" stop-opacity="0.1"/>
</linearGradient>
<linearGradient id="paint6_linear_35_7211" x1="29.3956" y1="30.4946" x2="33.7458" y2="41.4758" gradientUnits="userSpaceOnUse">
<stop stop-color="white" stop-opacity="0.4"/>
<stop offset="0.4" stop-color="white" stop-opacity="0.01"/>
<stop offset="0.6" stop-color="white" stop-opacity="0.01"/>
<stop offset="1" stop-color="white" stop-opacity="0.1"/>
</linearGradient>
<linearGradient id="paint7_linear_35_7211" x1="147.055" y1="30.4946" x2="151.405" y2="41.4758" gradientUnits="userSpaceOnUse">
<stop stop-color="white" stop-opacity="0.4"/>
<stop offset="0.4" stop-color="white" stop-opacity="0.01"/>
<stop offset="0.6" stop-color="white" stop-opacity="0.01"/>
<stop offset="1" stop-color="white" stop-opacity="0.1"/>
</linearGradient>
<clipPath id="clip1_35_7211">
<rect width="370" height="310" rx="16.2637" fill="white"/>
</clipPath>
<clipPath id="clip4_35_7211">
<rect x="305.143" y="24.6646" width="40.4615" height="40.4615" rx="20.2308" fill="white"/>
</clipPath>
</defs>
</svg>
